# cup_holder from hdgp/assets/cup_holder/cup_holder_rl.usd (m) — FP++ mesh
v 0.050000 0.015000 -0.050100
v 0.050000 -0.015000 -0.050100
v 0.050000 -0.015000 -0.040100
v 0.050000 0.015000 -0.040100
v 0.050000 -0.015000 -0.040100
v 0.050000 -0.015000 -0.050100
v 0.095000 -0.015000 -0.050100
v 0.095943 -0.015000 -0.049947
v 0.096827 -0.015000 -0.049572
v 0.098422 -0.015000 -0.048346
v 0.099578 -0.015000 -0.046719
v 0.099893 -0.015000 -0.045881
v 0.100000 -0.015000 -0.045100
v 0.100000 -0.015000 -0.024900
v 0.099847 -0.015000 -0.023957
v 0.099472 -0.015000 -0.023073
v 0.098246 -0.015000 -0.021478
v 0.096619 -0.015000 -0.020322
v 0.095781 -0.015000 -0.020007
v 0.095000 -0.015000 -0.019900
v 0.040000 -0.015000 -0.019900
v 0.040000 -0.015000 -0.030000
v 0.090000 -0.015000 -0.030000
v 0.090000 -0.015000 -0.040100
v 0.050000 -0.015000 -0.050100
v 0.050000 0.015000 -0.050100
v 0.095000 0.015000 -0.050100
v 0.095000 0.000000 -0.050100
v 0.095000 -0.015000 -0.050100
v -0.033000 0.040000 -0.030000
v -0.035163 0.039657 -0.030000
v -0.037114 0.038663 -0.030000
v -0.038663 0.037114 -0.030000
v -0.039657 0.035163 -0.030000
v -0.040000 0.033000 -0.030000
v -0.040000 0.033000 0.000000
v -0.039657 0.035163 0.000000
v -0.038663 0.037114 0.000000
v -0.037114 0.038663 0.000000
v -0.035163 0.039657 0.000000
v -0.033000 0.040000 0.000000
v -0.033000 0.040000 -0.030000
v -0.033000 0.040000 0.000000
v 0.000000 0.040000 0.000000
v 0.033000 0.040000 0.000000
v 0.033000 0.040000 -0.030000
v -0.033000 0.040000 0.000000
v -0.035163 0.039657 0.000000
v -0.037114 0.038663 0.000000
v -0.038663 0.037114 0.000000
v -0.039657 0.035163 0.000000
v -0.040000 0.033000 0.000000
v -0.040000 0.015000 0.000000
v -0.041000 0.015000 0.000000
v -0.041000 -0.015000 0.000000
v -0.040000 -0.015000 0.000000
v -0.040000 -0.033000 0.000000
v -0.039657 -0.035163 0.000000
v -0.038663 -0.037114 0.000000
v -0.037114 -0.038663 0.000000
v -0.035163 -0.039657 0.000000
v -0.033000 -0.040000 0.000000
v 0.000000 -0.040000 0.000000
v -0.005221 -0.039658 0.000000
v -0.010353 -0.038637 0.000000
v -0.015307 -0.036955 0.000000
v -0.020000 -0.034641 0.000000
v -0.024350 -0.031734 0.000000
v -0.028284 -0.028284 0.000000
v -0.031734 -0.024350 0.000000
v -0.034641 -0.020000 0.000000
v -0.036955 -0.015307 0.000000
v -0.038637 -0.010353 0.000000
v -0.039658 -0.005221 0.000000
v -0.040000 0.000000 0.000000
v -0.039658 0.005221 0.000000
v -0.038637 0.010353 0.000000
v -0.036955 0.015307 0.000000
v -0.034641 0.020000 0.000000
v -0.031734 0.024350 0.000000
v -0.028284 0.028284 0.000000
v -0.024350 0.031734 0.000000
v -0.020000 0.034641 0.000000
v -0.015307 0.036955 0.000000
v -0.010353 0.038637 0.000000
v -0.005221 0.039658 0.000000
v 0.000000 0.040000 0.000000
v -0.040000 -0.033000 -0.030000
v -0.039657 -0.035163 -0.030000
v -0.038663 -0.037114 -0.030000
v -0.037114 -0.038663 -0.030000
v -0.035163 -0.039657 -0.030000
v -0.033000 -0.040000 -0.030000
v -0.033000 -0.040000 0.000000
v -0.035163 -0.039657 0.000000
v -0.037114 -0.038663 0.000000
v -0.038663 -0.037114 0.000000
v -0.039657 -0.035163 0.000000
v -0.040000 -0.033000 0.000000
v -0.040000 0.033000 -0.030000
v -0.039657 0.035163 -0.030000
v -0.038663 0.037114 -0.030000
v -0.037114 0.038663 -0.030000
v -0.035163 0.039657 -0.030000
v -0.033000 0.040000 -0.030000
v 0.033000 0.040000 -0.030000
v 0.035163 0.039657 -0.030000
v 0.037114 0.038663 -0.030000
v 0.038663 0.037114 -0.030000
v 0.039657 0.035163 -0.030000
v 0.040000 0.033000 -0.030000
v 0.040000 0.015000 -0.030000
v 0.090000 0.015000 -0.030000
v 0.090000 -0.015000 -0.030000
v 0.040000 -0.015000 -0.030000
v 0.040000 -0.033000 -0.030000
v 0.039657 -0.035163 -0.030000
v 0.038663 -0.037114 -0.030000
v 0.037114 -0.038663 -0.030000
v 0.035163 -0.039657 -0.030000
v 0.033000 -0.040000 -0.030000
v -0.033000 -0.040000 -0.030000
v -0.035163 -0.039657 -0.030000
v -0.037114 -0.038663 -0.030000
v -0.038663 -0.037114 -0.030000
v -0.039657 -0.035163 -0.030000
v -0.040000 -0.033000 -0.030000
v -0.040000 -0.015000 -0.030000
v -0.041000 -0.015000 -0.030000
v -0.041000 0.015000 -0.030000
v -0.040000 0.015000 -0.030000
v -0.040000 -0.033000 -0.030000
v -0.040000 -0.033000 0.000000
v -0.040000 -0.015000 0.000000
v -0.040000 -0.015000 -0.030000
v 0.040000 0.033000 -0.030000
v 0.039657 0.035163 -0.030000
v 0.038663 0.037114 -0.030000
v 0.037114 0.038663 -0.030000
v 0.035163 0.039657 -0.030000
v 0.033000 0.040000 -0.030000
v 0.033000 0.040000 0.000000
v 0.035163 0.039657 0.000000
v 0.037114 0.038663 0.000000
v 0.038663 0.037114 0.000000
v 0.039657 0.035163 0.000000
v 0.040000 0.033000 0.000000
v 0.040000 0.033000 -0.030000
v 0.040000 0.033000 0.000000
v 0.040000 0.000000 0.000000
v 0.040000 -0.033000 0.000000
v 0.040000 -0.033000 -0.030000
v 0.040000 -0.015000 -0.030000
v 0.040000 -0.015000 -0.019900
v 0.040000 0.015000 -0.019900
v 0.040000 0.015000 -0.030000
v 0.040000 0.033000 0.000000
v 0.039657 0.035163 0.000000
v 0.038663 0.037114 0.000000
v 0.037114 0.038663 0.000000
v 0.035163 0.039657 0.000000
v 0.033000 0.040000 0.000000
v 0.000000 0.040000 0.000000
v 0.005221 0.039658 0.000000
v 0.010353 0.038637 0.000000
v 0.015307 0.036955 0.000000
v 0.020000 0.034641 0.000000
v 0.024350 0.031734 0.000000
v 0.028284 0.028284 0.000000
v 0.031734 0.024350 0.000000
v 0.034641 0.020000 0.000000
v 0.036955 0.015307 0.000000
v 0.038637 0.010353 0.000000
v 0.039658 0.005221 0.000000
v 0.040000 0.000000 0.000000
v 0.033000 -0.040000 -0.030000
v 0.035163 -0.039657 -0.030000
v 0.037114 -0.038663 -0.030000
v 0.038663 -0.037114 -0.030000
v 0.039657 -0.035163 -0.030000
v 0.040000 -0.033000 -0.030000
v 0.040000 -0.033000 0.000000
v 0.039657 -0.035163 0.000000
v 0.038663 -0.037114 0.000000
v 0.037114 -0.038663 0.000000
v 0.035163 -0.039657 0.000000
v 0.033000 -0.040000 0.000000
v -0.033000 -0.040000 0.000000
v -0.033000 -0.040000 -0.030000
v 0.033000 -0.040000 -0.030000
v 0.033000 -0.040000 0.000000
v 0.000000 -0.040000 0.000000
v 0.033000 -0.040000 0.000000
v 0.035163 -0.039657 0.000000
v 0.037114 -0.038663 0.000000
v 0.038663 -0.037114 0.000000
v 0.039657 -0.035163 0.000000
v 0.040000 -0.033000 0.000000
v 0.040000 0.000000 0.000000
v 0.039658 -0.005221 0.000000
v 0.038637 -0.010353 0.000000
v 0.036955 -0.015307 0.000000
v 0.034641 -0.020000 0.000000
v 0.031734 -0.024350 0.000000
v 0.028284 -0.028284 0.000000
v 0.024350 -0.031734 0.000000
v 0.020000 -0.034641 0.000000
v 0.015307 -0.036955 0.000000
v 0.010353 -0.038637 0.000000
v 0.005221 -0.039658 0.000000
v 0.000000 -0.040000 0.000000
v 0.050000 0.015000 -0.040100
v 0.050000 -0.015000 -0.040100
v 0.090000 -0.015000 -0.040100
v 0.090000 0.015000 -0.040100
v 0.095000 0.015000 -0.050100
v 0.095781 0.015000 -0.049993
v 0.096619 0.015000 -0.049678
v 0.098246 0.015000 -0.048522
v 0.099472 0.015000 -0.046927
v 0.099847 0.015000 -0.046043
v 0.100000 0.015000 -0.045100
v 0.100000 0.000000 -0.045100
v 0.100000 -0.015000 -0.045100
v 0.099893 -0.015000 -0.045881
v 0.099578 -0.015000 -0.046719
v 0.098422 -0.015000 -0.048346
v 0.096827 -0.015000 -0.049572
v 0.095943 -0.015000 -0.049947
v 0.095000 -0.015000 -0.050100
v 0.095000 0.000000 -0.050100
v 0.099944 -0.013125 -0.045657
v 0.099944 -0.007500 -0.045657
v 0.095855 -0.012187 -0.049973
v 0.095855 -0.007500 -0.049973
v 0.099944 0.007500 -0.045657
v 0.099757 0.007500 -0.046307
v 0.098925 0.007500 -0.047764
v 0.097970 0.007500 -0.048775
v 0.096886 0.007500 -0.049539
v 0.095855 0.007500 -0.049973
v 0.099944 -0.003750 -0.045657
v 0.099757 -0.003750 -0.046307
v 0.098925 -0.003750 -0.047764
v 0.097970 -0.003750 -0.048775
v 0.096886 -0.003750 -0.049539
v 0.095855 -0.003750 -0.049973
v 0.095855 0.000000 -0.049973
v 0.096886 0.000000 -0.049539
v 0.097970 0.000000 -0.048775
v 0.098925 0.000000 -0.047764
v 0.099757 0.000000 -0.046307
v 0.099944 0.000000 -0.045657
v 0.095855 -0.014062 -0.049973
v 0.096886 -0.014062 -0.049539
v 0.097970 -0.014062 -0.048775
v 0.098925 -0.013125 -0.047764
v 0.099757 -0.014062 -0.046307
v 0.099757 -0.013125 -0.046307
v 0.099944 -0.014062 -0.045657
v 0.098925 -0.014062 -0.047764
v 0.099757 -0.007500 -0.046307
v 0.098925 -0.007500 -0.047764
v 0.097970 -0.007500 -0.048775
v 0.096886 -0.007500 -0.049539
v 0.095855 -0.009375 -0.049973
v 0.099944 -0.009375 -0.045657
v 0.099757 -0.009375 -0.046307
v 0.098925 -0.009375 -0.047764
v 0.097970 -0.009375 -0.048775
v 0.096886 -0.009375 -0.049539
v 0.099944 -0.011250 -0.045657
v 0.099757 -0.011250 -0.046307
v 0.098925 -0.011250 -0.047764
v 0.097970 -0.011250 -0.048775
v 0.096886 -0.011250 -0.049539
v 0.095855 -0.011250 -0.049973
v 0.099944 -0.012187 -0.045657
v 0.099757 -0.012187 -0.046307
v 0.098925 -0.012187 -0.047764
v 0.097970 -0.012187 -0.048775
v 0.096886 -0.012187 -0.049539
v 0.097970 -0.013125 -0.048775
v 0.096886 -0.013125 -0.049539
v 0.095855 -0.013125 -0.049973
v 0.100000 -0.015000 -0.045100
v 0.100000 0.000000 -0.045100
v 0.100000 0.015000 -0.045100
v 0.100000 0.015000 -0.024900
v 0.100000 0.000000 -0.024900
v 0.100000 -0.015000 -0.024900
v 0.095000 -0.015000 -0.019900
v 0.095781 -0.015000 -0.020007
v 0.096619 -0.015000 -0.020322
v 0.098246 -0.015000 -0.021478
v 0.099472 -0.015000 -0.023073
v 0.099847 -0.015000 -0.023957
v 0.100000 -0.015000 -0.024900
v 0.100000 0.000000 -0.024900
v 0.100000 0.015000 -0.024900
v 0.099893 0.015000 -0.024119
v 0.099578 0.015000 -0.023281
v 0.098422 0.015000 -0.021654
v 0.096827 0.015000 -0.020428
v 0.095943 0.015000 -0.020053
v 0.095000 0.015000 -0.019900
v 0.095000 0.000000 -0.019900
v 0.099944 0.013125 -0.024343
v 0.099944 0.007500 -0.024343
v 0.095855 0.012187 -0.020027
v 0.095855 0.007500 -0.020027
v 0.099944 -0.007500 -0.024343
v 0.099757 -0.007500 -0.023693
v 0.098925 -0.007500 -0.022236
v 0.097970 -0.007500 -0.021225
v 0.096886 -0.007500 -0.020461
v 0.095855 -0.007500 -0.020027
v 0.099944 0.003750 -0.024343
v 0.099757 0.003750 -0.023693
v 0.098925 0.003750 -0.022236
v 0.097970 0.003750 -0.021225
v 0.096886 0.003750 -0.020461
v 0.095855 0.003750 -0.020027
v 0.095855 0.000000 -0.020027
v 0.096886 0.000000 -0.020461
v 0.097970 0.000000 -0.021225
v 0.098925 0.000000 -0.022236
v 0.099757 0.000000 -0.023693
v 0.099944 0.000000 -0.024343
v 0.095855 0.014062 -0.020027
v 0.096886 0.014062 -0.020461
v 0.097970 0.014062 -0.021225
v 0.098925 0.013125 -0.022236
v 0.099757 0.014062 -0.023693
v 0.099757 0.013125 -0.023693
v 0.099944 0.014062 -0.024343
v 0.098925 0.014062 -0.022236
v 0.099757 0.007500 -0.023693
v 0.098925 0.007500 -0.022236
v 0.097970 0.007500 -0.021225
v 0.096886 0.007500 -0.020461
v 0.095855 0.009375 -0.020027
v 0.099944 0.009375 -0.024343
v 0.099757 0.009375 -0.023693
v 0.098925 0.009375 -0.022236
v 0.097970 0.009375 -0.021225
v 0.096886 0.009375 -0.020461
v 0.099944 0.011250 -0.024343
v 0.099757 0.011250 -0.023693
v 0.098925 0.011250 -0.022236
v 0.097970 0.011250 -0.021225
v 0.096886 0.011250 -0.020461
v 0.095855 0.011250 -0.020027
v 0.099944 0.012187 -0.024343
v 0.099757 0.012187 -0.023693
v 0.098925 0.012187 -0.022236
v 0.097970 0.012187 -0.021225
v 0.096886 0.012187 -0.020461
v 0.097970 0.013125 -0.021225
v 0.096886 0.013125 -0.020461
v 0.095855 0.013125 -0.020027
v -0.040000 -0.015000 -0.030000
v -0.040000 -0.015000 0.000000
v -0.041000 -0.015000 0.000000
v -0.041000 -0.015000 -0.030000
v -0.040000 0.015000 0.000000
v -0.040000 0.015000 -0.030000
v -0.041000 0.015000 -0.030000
v -0.041000 0.015000 0.000000
v -0.041000 -0.015000 0.000000
v -0.041000 0.015000 0.000000
v -0.041000 0.015000 -0.030000
v -0.041000 -0.015000 -0.030000
v 0.090000 -0.015000 -0.040100
v 0.090000 -0.015000 -0.030000
v 0.090000 0.015000 -0.030000
v 0.090000 0.015000 -0.040100
v 0.095000 -0.015000 -0.019900
v 0.095000 0.000000 -0.019900
v 0.095000 0.015000 -0.019900
v 0.040000 0.015000 -0.019900
v 0.040000 -0.015000 -0.019900
v 0.050000 0.015000 -0.050100
v 0.050000 0.015000 -0.040100
v 0.090000 0.015000 -0.040100
v 0.090000 0.015000 -0.030000
v 0.040000 0.015000 -0.030000
v 0.040000 0.015000 -0.019900
v 0.095000 0.015000 -0.019900
v 0.095943 0.015000 -0.020053
v 0.096827 0.015000 -0.020428
v 0.098422 0.015000 -0.021654
v 0.099578 0.015000 -0.023281
v 0.099893 0.015000 -0.024119
v 0.100000 0.015000 -0.024900
v 0.100000 0.015000 -0.045100
v 0.099847 0.015000 -0.046043
v 0.099472 0.015000 -0.046927
v 0.098246 0.015000 -0.048522
v 0.096619 0.015000 -0.049678
v 0.095781 0.015000 -0.049993
v 0.095000 0.015000 -0.050100
v -0.035000 0.000000 -0.025000
v -0.034659 -0.004871 -0.025000
v -0.033644 -0.009647 -0.025000
v -0.031974 -0.014236 -0.025000
v -0.029682 -0.018547 -0.025000
v -0.026812 -0.022498 -0.025000
v -0.023420 -0.026010 -0.025000
v -0.019572 -0.029016 -0.025000
v -0.015343 -0.031458 -0.025000
v -0.010816 -0.033287 -0.025000
v -0.006078 -0.034468 -0.025000
v -0.001221 -0.034979 -0.025000
v 0.003658 -0.034808 -0.025000
v 0.008467 -0.033960 -0.025000
v 0.013111 -0.032451 -0.025000
v 0.017500 -0.030311 -0.025000
v 0.021548 -0.027580 -0.025000
v 0.025177 -0.024313 -0.025000
v 0.028316 -0.020572 -0.025000
v 0.030903 -0.016432 -0.025000
v 0.032889 -0.011971 -0.025000
v 0.034235 -0.007277 -0.025000
v 0.034915 -0.002441 -0.025000
v 0.034915 0.002441 -0.025000
v 0.034235 0.007277 -0.025000
v 0.032889 0.011971 -0.025000
v 0.030903 0.016432 -0.025000
v 0.028316 0.020572 -0.025000
v 0.025177 0.024313 -0.025000
v 0.021548 0.027580 -0.025000
v 0.017500 0.030311 -0.025000
v 0.013111 0.032451 -0.025000
v 0.008467 0.033960 -0.025000
v 0.003658 0.034808 -0.025000
v -0.001221 0.034979 -0.025000
v -0.006078 0.034468 -0.025000
v -0.010816 0.033287 -0.025000
v -0.015343 0.031458 -0.025000
v -0.019572 0.029016 -0.025000
v -0.023420 0.026010 -0.025000
v -0.026812 0.022498 -0.025000
v -0.029682 0.018547 -0.025000
v -0.031974 0.014236 -0.025000
v -0.033644 0.009647 -0.025000
v -0.034659 0.004871 -0.025000
v -0.040000 0.033000 0.000000
v -0.040000 0.033000 -0.030000
v -0.040000 0.015000 -0.030000
v -0.040000 0.015000 0.000000
v -0.035000 0.000000 -0.025000
v -0.034659 0.004871 -0.025000
v -0.033644 0.009647 -0.025000
v -0.031974 0.014236 -0.025000
v -0.029682 0.018547 -0.025000
v -0.026812 0.022498 -0.025000
v -0.023420 0.026010 -0.025000
v -0.019572 0.029016 -0.025000
v -0.015343 0.031458 -0.025000
v -0.010816 0.033287 -0.025000
v -0.006078 0.034468 -0.025000
v -0.001221 0.034979 -0.025000
v 0.003658 0.034808 -0.025000
v 0.008467 0.033960 -0.025000
v 0.013111 0.032451 -0.025000
v 0.017500 0.030311 -0.025000
v 0.021548 0.027580 -0.025000
v 0.025177 0.024313 -0.025000
v 0.028316 0.020572 -0.025000
v 0.030903 0.016432 -0.025000
v 0.032889 0.011971 -0.025000
v 0.034235 0.007277 -0.025000
v 0.034915 0.002441 -0.025000
v 0.034915 -0.002441 -0.025000
v 0.034235 -0.007277 -0.025000
v 0.032889 -0.011971 -0.025000
v 0.030903 -0.016432 -0.025000
v 0.028316 -0.020572 -0.025000
v 0.025177 -0.024313 -0.025000
v 0.021548 -0.027580 -0.025000
v 0.017500 -0.030311 -0.025000
v 0.013111 -0.032451 -0.025000
v 0.008467 -0.033960 -0.025000
v 0.003658 -0.034808 -0.025000
v -0.001221 -0.034979 -0.025000
v -0.006078 -0.034468 -0.025000
v -0.010816 -0.033287 -0.025000
v -0.015343 -0.031458 -0.025000
v -0.019572 -0.029016 -0.025000
v -0.023420 -0.026010 -0.025000
v -0.026812 -0.022498 -0.025000
v -0.029682 -0.018547 -0.025000
v -0.031974 -0.014236 -0.025000
v -0.033644 -0.009647 -0.025000
v -0.034659 -0.004871 -0.025000
v -0.035000 0.000000 0.030000
v -0.034659 -0.004871 0.030000
v -0.033644 -0.009647 0.030000
v -0.031974 -0.014236 0.030000
v -0.029682 -0.018547 0.030000
v -0.026812 -0.022498 0.030000
v -0.023420 -0.026010 0.030000
v -0.019572 -0.029016 0.030000
v -0.015343 -0.031458 0.030000
v -0.010816 -0.033287 0.030000
v -0.006078 -0.034468 0.030000
v -0.001221 -0.034979 0.030000
v 0.003658 -0.034808 0.030000
v 0.008467 -0.033960 0.030000
v 0.013111 -0.032451 0.030000
v 0.017500 -0.030311 0.030000
v 0.021548 -0.027580 0.030000
v 0.025177 -0.024313 0.030000
v 0.028316 -0.020572 0.030000
v 0.030903 -0.016432 0.030000
v 0.032889 -0.011971 0.030000
v 0.034235 -0.007277 0.030000
v 0.034915 -0.002441 0.030000
v 0.034915 0.002441 0.030000
v 0.034235 0.007277 0.030000
v 0.032889 0.011971 0.030000
v 0.030903 0.016432 0.030000
v 0.028316 0.020572 0.030000
v 0.025177 0.024313 0.030000
v 0.021548 0.027580 0.030000
v 0.017500 0.030311 0.030000
v 0.013111 0.032451 0.030000
v 0.008467 0.033960 0.030000
v 0.003658 0.034808 0.030000
v -0.001221 0.034979 0.030000
v -0.006078 0.034468 0.030000
v -0.010816 0.033287 0.030000
v -0.015343 0.031458 0.030000
v -0.019572 0.029016 0.030000
v -0.023420 0.026010 0.030000
v -0.026812 0.022498 0.030000
v -0.029682 0.018547 0.030000
v -0.031974 0.014236 0.030000
v -0.033644 0.009647 0.030000
v -0.034659 0.004871 0.030000
v -0.035000 0.000000 0.030000
v -0.035000 0.000000 -0.025000
v -0.040000 0.000000 0.030000
v -0.039658 0.005221 0.030000
v -0.038637 0.010353 0.030000
v -0.036955 0.015307 0.030000
v -0.034641 0.020000 0.030000
v -0.031734 0.024350 0.030000
v -0.028284 0.028284 0.030000
v -0.024350 0.031734 0.030000
v -0.020000 0.034641 0.030000
v -0.015307 0.036955 0.030000
v -0.010353 0.038637 0.030000
v -0.005221 0.039658 0.030000
v 0.000000 0.040000 0.030000
v 0.005221 0.039658 0.030000
v 0.010353 0.038637 0.030000
v 0.015307 0.036955 0.030000
v 0.020000 0.034641 0.030000
v 0.024350 0.031734 0.030000
v 0.028284 0.028284 0.030000
v 0.031734 0.024350 0.030000
v 0.034641 0.020000 0.030000
v 0.036955 0.015307 0.030000
v 0.038637 0.010353 0.030000
v 0.039658 0.005221 0.030000
v 0.040000 0.000000 0.030000
v 0.039658 -0.005221 0.030000
v 0.038637 -0.010353 0.030000
v 0.036955 -0.015307 0.030000
v 0.034641 -0.020000 0.030000
v 0.031734 -0.024350 0.030000
v 0.028284 -0.028284 0.030000
v 0.024350 -0.031734 0.030000
v 0.020000 -0.034641 0.030000
v 0.015307 -0.036955 0.030000
v 0.010353 -0.038637 0.030000
v 0.005221 -0.039658 0.030000
v 0.000000 -0.040000 0.030000
v -0.005221 -0.039658 0.030000
v -0.010353 -0.038637 0.030000
v -0.015307 -0.036955 0.030000
v -0.020000 -0.034641 0.030000
v -0.024350 -0.031734 0.030000
v -0.028284 -0.028284 0.030000
v -0.031734 -0.024350 0.030000
v -0.034641 -0.020000 0.030000
v -0.036955 -0.015307 0.030000
v -0.038637 -0.010353 0.030000
v -0.039658 -0.005221 0.030000
v 0.000000 0.040000 0.000000
v -0.005221 0.039658 0.000000
v -0.010353 0.038637 0.000000
v -0.015307 0.036955 0.000000
v -0.020000 0.034641 0.000000
v -0.024350 0.031734 0.000000
v -0.028284 0.028284 0.000000
v -0.031734 0.024350 0.000000
v -0.034641 0.020000 0.000000
v -0.036955 0.015307 0.000000
v -0.038637 0.010353 0.000000
v -0.039658 0.005221 0.000000
v -0.040000 0.000000 0.000000
v -0.039658 -0.005221 0.000000
v -0.038637 -0.010353 0.000000
v -0.036955 -0.015307 0.000000
v -0.034641 -0.020000 0.000000
v -0.031734 -0.024350 0.000000
v -0.028284 -0.028284 0.000000
v -0.024350 -0.031734 0.000000
v -0.020000 -0.034641 0.000000
v -0.015307 -0.036955 0.000000
v -0.010353 -0.038637 0.000000
v -0.005221 -0.039658 0.000000
v 0.000000 -0.040000 0.000000
v 0.005221 -0.039658 0.000000
v 0.010353 -0.038637 0.000000
v 0.015307 -0.036955 0.000000
v 0.020000 -0.034641 0.000000
v 0.024350 -0.031734 0.000000
v 0.028284 -0.028284 0.000000
v 0.031734 -0.024350 0.000000
v 0.034641 -0.020000 0.000000
v 0.036955 -0.015307 0.000000
v 0.038637 -0.010353 0.000000
v 0.039658 -0.005221 0.000000
v 0.040000 0.000000 0.000000
v 0.039658 0.005221 0.000000
v 0.038637 0.010353 0.000000
v 0.036955 0.015307 0.000000
v 0.034641 0.020000 0.000000
v 0.031734 0.024350 0.000000
v 0.028284 0.028284 0.000000
v 0.024350 0.031734 0.000000
v 0.020000 0.034641 0.000000
v 0.015307 0.036955 0.000000
v 0.010353 0.038637 0.000000
v 0.005221 0.039658 0.000000
v -0.040000 0.000000 0.000000
v -0.040000 0.000000 0.030000
v -0.035000 0.000000 0.030000
v -0.034659 0.004871 0.030000
v -0.033644 0.009647 0.030000
v -0.031974 0.014236 0.030000
v -0.029682 0.018547 0.030000
v -0.026812 0.022498 0.030000
v -0.023420 0.026010 0.030000
v -0.019572 0.029016 0.030000
v -0.015343 0.031458 0.030000
v -0.010816 0.033287 0.030000
v -0.006078 0.034468 0.030000
v -0.001221 0.034979 0.030000
v 0.003658 0.034808 0.030000
v 0.008467 0.033960 0.030000
v 0.013111 0.032451 0.030000
v 0.017500 0.030311 0.030000
v 0.021548 0.027580 0.030000
v 0.025177 0.024313 0.030000
v 0.028316 0.020572 0.030000
v 0.030903 0.016432 0.030000
v 0.032889 0.011971 0.030000
v 0.034235 0.007277 0.030000
v 0.034915 0.002441 0.030000
v 0.034915 -0.002441 0.030000
v 0.034235 -0.007277 0.030000
v 0.032889 -0.011971 0.030000
v 0.030903 -0.016432 0.030000
v 0.028316 -0.020572 0.030000
v 0.025177 -0.024313 0.030000
v 0.021548 -0.027580 0.030000
v 0.017500 -0.030311 0.030000
v 0.013111 -0.032451 0.030000
v 0.008467 -0.033960 0.030000
v 0.003658 -0.034808 0.030000
v -0.001221 -0.034979 0.030000
v -0.006078 -0.034468 0.030000
v -0.010816 -0.033287 0.030000
v -0.015343 -0.031458 0.030000
v -0.019572 -0.029016 0.030000
v -0.023420 -0.026010 0.030000
v -0.026812 -0.022498 0.030000
v -0.029682 -0.018547 0.030000
v -0.031974 -0.014236 0.030000
v -0.033644 -0.009647 0.030000
v -0.034659 -0.004871 0.030000
v -0.040000 0.000000 0.030000
v -0.039658 -0.005221 0.030000
v -0.038637 -0.010353 0.030000
v -0.036955 -0.015307 0.030000
v -0.034641 -0.020000 0.030000
v -0.031734 -0.024350 0.030000
v -0.028284 -0.028284 0.030000
v -0.024350 -0.031734 0.030000
v -0.020000 -0.034641 0.030000
v -0.015307 -0.036955 0.030000
v -0.010353 -0.038637 0.030000
v -0.005221 -0.039658 0.030000
v 0.000000 -0.040000 0.030000
v 0.005221 -0.039658 0.030000
v 0.010353 -0.038637 0.030000
v 0.015307 -0.036955 0.030000
v 0.020000 -0.034641 0.030000
v 0.024350 -0.031734 0.030000
v 0.028284 -0.028284 0.030000
v 0.031734 -0.024350 0.030000
v 0.034641 -0.020000 0.030000
v 0.036955 -0.015307 0.030000
v 0.038637 -0.010353 0.030000
v 0.039658 -0.005221 0.030000
v 0.040000 0.000000 0.030000
v 0.039658 0.005221 0.030000
v 0.038637 0.010353 0.030000
v 0.036955 0.015307 0.030000
v 0.034641 0.020000 0.030000
v 0.031734 0.024350 0.030000
v 0.028284 0.028284 0.030000
v 0.024350 0.031734 0.030000
v 0.020000 0.034641 0.030000
v 0.015307 0.036955 0.030000
v 0.010353 0.038637 0.030000
v 0.005221 0.039658 0.030000
v 0.000000 0.040000 0.030000
v -0.005221 0.039658 0.030000
v -0.010353 0.038637 0.030000
v -0.015307 0.036955 0.030000
v -0.020000 0.034641 0.030000
v -0.024350 0.031734 0.030000
v -0.028284 0.028284 0.030000
v -0.031734 0.024350 0.030000
v -0.034641 0.020000 0.030000
v -0.036955 0.015307 0.030000
v -0.038637 0.010353 0.030000
v -0.039658 0.005221 0.030000
f 2 3 1
f 1 3 4
f 5 6 24
f 24 6 7
f 24 7 10
f 10 7 9
f 9 7 8
f 10 11 24
f 24 11 12
f 24 12 13
f 24 13 23
f 23 13 14
f 23 14 15
f 15 16 23
f 23 16 17
f 23 17 20
f 20 17 18
f 20 18 19
f 20 21 23
f 23 21 22
f 29 25 28
f 28 25 26
f 28 26 27
f 41 30 40
f 40 30 31
f 40 31 39
f 39 31 32
f 39 32 38
f 38 32 33
f 38 33 37
f 37 33 34
f 37 34 36
f 36 34 35
f 43 44 42
f 42 44 46
f 46 44 45
f 48 80 47
f 47 80 81
f 47 81 82
f 48 49 80
f 80 49 50
f 80 50 52
f 52 50 51
f 53 78 52
f 52 78 79
f 52 79 80
f 78 53 77
f 77 53 54
f 77 54 76
f 76 54 75
f 75 54 55
f 75 55 74
f 74 55 73
f 73 55 56
f 73 56 72
f 72 56 57
f 72 57 71
f 71 57 70
f 70 57 59
f 70 59 60
f 57 58 59
f 60 61 70
f 70 61 62
f 70 62 69
f 69 62 68
f 68 62 67
f 67 62 66
f 66 62 65
f 65 62 64
f 64 62 63
f 82 83 47
f 47 83 84
f 47 84 85
f 85 86 47
f 47 86 87
f 99 88 98
f 98 88 89
f 98 89 97
f 97 89 90
f 97 90 96
f 96 90 91
f 96 91 95
f 95 91 92
f 95 92 94
f 94 92 93
f 101 105 100
f 100 105 106
f 100 106 131
f 131 106 111
f 131 111 112
f 101 102 105
f 105 102 103
f 105 103 104
f 107 108 106
f 106 108 109
f 106 109 110
f 110 111 106
f 113 115 112
f 112 115 128
f 112 128 131
f 131 128 129
f 131 129 130
f 113 114 115
f 116 122 115
f 115 122 127
f 115 127 128
f 122 116 121
f 121 116 117
f 121 117 118
f 118 119 121
f 121 119 120
f 123 124 122
f 122 124 125
f 122 125 126
f 126 127 122
f 133 134 132
f 132 134 135
f 147 136 146
f 146 136 137
f 146 137 145
f 145 137 138
f 145 138 144
f 144 138 139
f 144 139 143
f 143 139 140
f 143 140 142
f 142 140 141
f 156 148 155
f 155 148 149
f 155 149 150
f 155 150 154
f 154 150 151
f 154 151 152
f 152 153 154
f 158 169 157
f 157 169 170
f 157 170 171
f 158 159 169
f 169 159 160
f 169 160 161
f 161 162 169
f 169 162 168
f 168 162 167
f 167 162 166
f 166 162 165
f 165 162 164
f 164 162 163
f 171 172 157
f 157 172 173
f 157 173 174
f 174 175 157
f 187 176 186
f 186 176 177
f 186 177 185
f 185 177 178
f 185 178 184
f 184 178 179
f 184 179 183
f 183 179 180
f 183 180 182
f 182 180 181
f 188 189 192
f 192 189 190
f 192 190 191
f 194 205 193
f 193 205 206
f 193 206 207
f 194 195 205
f 205 195 196
f 205 196 197
f 197 198 205
f 205 198 204
f 204 198 203
f 203 198 202
f 202 198 201
f 201 198 200
f 200 198 199
f 207 208 193
f 193 208 209
f 193 209 210
f 210 211 193
f 212 213 215
f 215 213 214
f 216 217 231
f 231 217 241
f 231 241 248
f 248 241 240
f 248 240 249
f 249 240 239
f 249 239 250
f 250 239 238
f 250 238 251
f 251 238 237
f 251 237 252
f 252 237 236
f 252 236 253
f 253 236 223
f 253 223 242
f 242 223 233
f 242 233 262
f 262 233 268
f 262 268 269
f 262 269 263
f 263 269 270
f 263 270 264
f 264 270 271
f 264 271 265
f 265 271 266
f 266 271 277
f 266 277 230
f 230 277 234
f 230 234 285
f 285 234 282
f 285 282 284
f 284 282 281
f 284 281 283
f 283 281 280
f 283 280 257
f 257 280 279
f 257 279 259
f 259 279 278
f 278 279 272
f 278 272 224
f 224 272 267
f 224 267 233
f 233 267 268
f 217 218 241
f 241 218 240
f 240 218 239
f 239 218 219
f 239 219 238
f 238 219 220
f 238 220 237
f 237 220 221
f 237 221 236
f 236 221 222
f 236 222 223
f 223 224 233
f 225 260 224
f 224 260 232
f 224 232 278
f 278 232 259
f 260 225 258
f 258 225 226
f 258 226 259
f 259 226 257
f 257 226 261
f 261 226 227
f 261 227 257
f 257 227 283
f 283 227 256
f 256 227 228
f 256 228 255
f 255 228 229
f 255 229 254
f 254 229 230
f 254 230 285
f 266 230 235
f 235 230 231
f 235 231 247
f 247 231 248
f 247 248 249
f 252 253 243
f 243 253 242
f 243 242 262
f 243 244 251
f 243 251 252
f 244 243 262
f 244 262 263
f 244 245 250
f 244 250 251
f 245 246 249
f 245 249 250
f 245 244 263
f 245 263 264
f 235 247 246
f 246 247 249
f 246 245 264
f 246 264 265
f 283 256 255
f 285 284 254
f 254 284 255
f 284 283 255
f 232 260 258
f 259 232 258
f 266 235 265
f 265 235 246
f 268 267 273
f 273 267 272
f 273 272 279
f 269 268 273
f 269 273 274
f 274 273 279
f 274 279 280
f 270 269 274
f 270 274 275
f 275 274 280
f 275 280 281
f 271 270 275
f 271 275 276
f 276 275 281
f 276 281 282
f 234 277 276
f 276 277 271
f 282 234 276
f 291 286 290
f 290 286 287
f 290 287 289
f 289 287 288
f 292 293 307
f 307 293 317
f 307 317 324
f 324 317 316
f 324 316 325
f 325 316 315
f 325 315 326
f 326 315 314
f 326 314 327
f 327 314 313
f 327 313 328
f 328 313 312
f 328 312 329
f 329 312 299
f 329 299 318
f 318 299 309
f 318 309 338
f 338 309 344
f 338 344 345
f 338 345 339
f 339 345 346
f 339 346 340
f 340 346 347
f 340 347 341
f 341 347 342
f 342 347 353
f 342 353 306
f 306 353 310
f 306 310 361
f 361 310 358
f 361 358 360
f 360 358 357
f 360 357 359
f 359 357 356
f 359 356 333
f 333 356 355
f 333 355 335
f 335 355 354
f 354 355 348
f 354 348 300
f 300 348 343
f 300 343 309
f 309 343 344
f 293 294 317
f 317 294 316
f 316 294 315
f 315 294 295
f 315 295 314
f 314 295 296
f 314 296 313
f 313 296 297
f 313 297 312
f 312 297 298
f 312 298 299
f 299 300 309
f 301 336 300
f 300 336 308
f 300 308 354
f 354 308 335
f 336 301 334
f 334 301 302
f 334 302 335
f 335 302 333
f 333 302 337
f 337 302 303
f 337 303 333
f 333 303 359
f 359 303 332
f 332 303 304
f 332 304 331
f 331 304 305
f 331 305 330
f 330 305 306
f 330 306 361
f 342 306 311
f 311 306 307
f 311 307 323
f 323 307 324
f 323 324 325
f 328 329 319
f 319 329 318
f 319 318 338
f 319 320 327
f 319 327 328
f 320 319 338
f 320 338 339
f 320 321 326
f 320 326 327
f 321 322 325
f 321 325 326
f 321 320 339
f 321 339 340
f 311 323 322
f 322 323 325
f 322 321 340
f 322 340 341
f 359 332 331
f 361 360 330
f 330 360 331
f 360 359 331
f 308 336 334
f 335 308 334
f 342 311 341
f 341 311 322
f 344 343 349
f 349 343 348
f 349 348 355
f 345 344 349
f 345 349 350
f 350 349 355
f 350 355 356
f 346 345 350
f 346 350 351
f 351 350 356
f 351 356 357
f 347 346 351
f 347 351 352
f 352 351 357
f 352 357 358
f 310 353 352
f 352 353 347
f 358 310 352
f 362 363 365
f 365 363 364
f 366 367 369
f 369 367 368
f 371 372 370
f 370 372 373
f 374 375 377
f 377 375 376
f 378 379 382
f 382 379 381
f 381 379 380
f 384 385 383
f 383 385 402
f 402 385 399
f 402 399 400
f 386 396 385
f 385 396 397
f 385 397 398
f 387 388 386
f 386 388 389
f 386 389 392
f 392 389 391
f 391 389 390
f 392 393 386
f 386 393 394
f 386 394 395
f 395 396 386
f 398 399 385
f 400 401 402
f 447 403 423
f 423 403 404
f 423 404 405
f 405 406 423
f 423 406 422
f 422 406 407
f 422 407 421
f 421 407 408
f 421 408 420
f 420 408 409
f 420 409 419
f 419 409 410
f 419 410 418
f 418 410 411
f 418 411 417
f 417 411 412
f 417 412 416
f 416 412 413
f 416 413 415
f 415 413 414
f 424 428 423
f 423 428 429
f 423 429 430
f 428 424 427
f 427 424 425
f 427 425 426
f 430 431 423
f 423 431 432
f 423 432 433
f 433 434 423
f 423 434 435
f 423 435 436
f 436 437 423
f 423 437 438
f 423 438 439
f 439 440 423
f 423 440 441
f 423 441 442
f 442 443 423
f 423 443 444
f 423 444 445
f 445 446 423
f 423 446 447
f 449 450 448
f 448 450 451
f 453 541 452
f 452 541 542
f 543 497 496
f 496 497 498
f 496 498 495
f 495 498 499
f 495 499 494
f 494 499 500
f 494 500 493
f 493 500 501
f 493 501 492
f 492 501 502
f 492 502 491
f 491 502 503
f 491 503 490
f 490 503 504
f 490 504 489
f 489 504 505
f 489 505 488
f 488 505 506
f 488 506 487
f 487 506 507
f 487 507 486
f 486 507 508
f 486 508 485
f 485 508 509
f 485 509 484
f 484 509 510
f 484 510 483
f 483 510 511
f 483 511 482
f 482 511 512
f 482 512 481
f 481 512 513
f 481 513 480
f 480 513 514
f 480 514 479
f 479 514 515
f 479 515 478
f 478 515 516
f 478 516 477
f 477 516 517
f 477 517 476
f 476 517 518
f 476 518 475
f 475 518 519
f 475 519 474
f 474 519 520
f 474 520 473
f 473 520 521
f 473 521 472
f 472 521 522
f 472 522 471
f 471 522 523
f 471 523 470
f 470 523 524
f 470 524 469
f 469 524 525
f 469 525 468
f 468 525 526
f 468 526 467
f 467 526 527
f 467 527 466
f 466 527 528
f 466 528 465
f 465 528 529
f 465 529 464
f 464 529 530
f 464 530 463
f 463 530 531
f 463 531 462
f 462 531 532
f 462 532 461
f 461 532 533
f 461 533 460
f 460 533 534
f 460 534 459
f 459 534 535
f 459 535 458
f 458 535 536
f 458 536 457
f 457 536 537
f 457 537 456
f 456 537 538
f 456 538 455
f 455 538 539
f 455 539 454
f 454 539 540
f 454 540 453
f 453 540 541
f 545 603 544
f 544 603 640
f 641 604 591
f 591 604 605
f 591 605 590
f 590 605 606
f 590 606 589
f 589 606 607
f 589 607 588
f 588 607 608
f 588 608 587
f 587 608 609
f 587 609 586
f 586 609 610
f 586 610 585
f 585 610 611
f 585 611 584
f 584 611 612
f 584 612 583
f 583 612 613
f 583 613 582
f 582 613 614
f 582 614 581
f 581 614 615
f 581 615 580
f 580 615 616
f 580 616 579
f 579 616 617
f 579 617 578
f 578 617 618
f 578 618 577
f 577 618 619
f 577 619 576
f 576 619 620
f 576 620 575
f 575 620 621
f 575 621 574
f 574 621 622
f 574 622 573
f 573 622 623
f 573 623 572
f 572 623 624
f 572 624 571
f 571 624 625
f 571 625 570
f 570 625 626
f 570 626 569
f 569 626 627
f 569 627 568
f 568 627 628
f 568 628 567
f 567 628 629
f 567 629 566
f 566 629 630
f 566 630 565
f 565 630 631
f 565 631 564
f 564 631 632
f 564 632 563
f 563 632 633
f 563 633 562
f 562 633 634
f 562 634 561
f 561 634 635
f 561 635 560
f 560 635 636
f 560 636 559
f 559 636 637
f 559 637 558
f 558 637 638
f 558 638 557
f 557 638 639
f 557 639 556
f 556 639 592
f 556 592 555
f 555 592 593
f 555 593 554
f 554 593 594
f 554 594 553
f 553 594 595
f 553 595 552
f 552 595 596
f 552 596 551
f 551 596 597
f 551 597 550
f 550 597 598
f 550 598 549
f 549 598 599
f 549 599 548
f 548 599 600
f 548 600 547
f 547 600 601
f 547 601 546
f 546 601 602
f 546 602 545
f 545 602 603
f 643 734 642
f 642 734 687
f 642 687 688
f 734 643 733
f 733 643 644
f 733 644 732
f 732 644 645
f 732 645 731
f 731 645 646
f 731 646 730
f 730 646 647
f 730 647 729
f 729 647 648
f 729 648 728
f 728 648 649
f 728 649 727
f 727 649 650
f 727 650 726
f 726 650 651
f 726 651 725
f 725 651 652
f 725 652 724
f 724 652 653
f 724 653 723
f 723 653 654
f 723 654 722
f 722 654 655
f 722 655 721
f 721 655 656
f 721 656 720
f 720 656 657
f 720 657 719
f 719 657 718
f 718 657 658
f 718 658 717
f 717 658 659
f 717 659 716
f 716 659 660
f 716 660 715
f 715 660 661
f 715 661 714
f 714 661 662
f 714 662 713
f 713 662 663
f 713 663 712
f 712 663 664
f 712 664 711
f 711 664 665
f 711 665 710
f 710 665 666
f 710 666 709
f 709 666 667
f 709 667 708
f 708 667 668
f 708 668 707
f 707 668 669
f 707 669 706
f 706 669 670
f 706 670 705
f 705 670 671
f 705 671 704
f 704 671 672
f 704 672 703
f 703 672 702
f 702 672 673
f 702 673 701
f 701 673 674
f 701 674 700
f 700 674 675
f 700 675 699
f 699 675 676
f 699 676 698
f 698 676 677
f 698 677 697
f 697 677 678
f 697 678 696
f 696 678 679
f 696 679 695
f 695 679 680
f 695 680 694
f 694 680 681
f 694 681 693
f 693 681 682
f 693 682 692
f 692 682 683
f 692 683 691
f 691 683 684
f 691 684 690
f 690 684 685
f 690 685 689
f 689 685 686
f 689 686 688
f 688 686 642
