# cyl60 from hdgp/assets/cyl_60mm/cyl_60mm_rl.usd visuals (m) — FP++ mesh, 원점 = 원통 중심(바닥 +0.085)
v -0.027500 0.000000 -0.080000
v -0.027144 -0.004411 -0.080000
v -0.026085 -0.008708 -0.080000
v -0.024350 -0.012780 -0.080000
v -0.021985 -0.016520 -0.080000
v -0.019050 -0.019833 -0.080000
v -0.015622 -0.022632 -0.080000
v -0.011789 -0.024845 -0.080000
v -0.007651 -0.026414 -0.080000
v -0.003315 -0.027299 -0.080000
v 0.001107 -0.027478 -0.080000
v 0.005501 -0.026944 -0.080000
v 0.009752 -0.025713 -0.080000
v 0.013750 -0.023816 -0.080000
v 0.017392 -0.021302 -0.080000
v 0.020584 -0.018236 -0.080000
v 0.023243 -0.014698 -0.080000
v 0.025299 -0.010779 -0.080000
v 0.026701 -0.006581 -0.080000
v 0.027411 -0.002213 -0.080000
v 0.027411 0.002213 -0.080000
v 0.026701 0.006581 -0.080000
v 0.025299 0.010779 -0.080000
v 0.023243 0.014698 -0.080000
v 0.020584 0.018236 -0.080000
v 0.017392 0.021302 -0.080000
v 0.013750 0.023816 -0.080000
v 0.009752 0.025713 -0.080000
v 0.005501 0.026944 -0.080000
v 0.001107 0.027478 -0.080000
v -0.003315 0.027299 -0.080000
v -0.007651 0.026414 -0.080000
v -0.011789 0.024845 -0.080000
v -0.015622 0.022632 -0.080000
v -0.019050 0.019833 -0.080000
v -0.021985 0.016520 -0.080000
v -0.024350 0.012780 -0.080000
v -0.026085 0.008708 -0.080000
v -0.027144 0.004411 -0.080000
v -0.027500 0.000000 -0.080000
v -0.027144 0.004411 -0.080000
v -0.026085 0.008708 -0.080000
v -0.024350 0.012780 -0.080000
v -0.021985 0.016520 -0.080000
v -0.019050 0.019833 -0.080000
v -0.015622 0.022632 -0.080000
v -0.011789 0.024845 -0.080000
v -0.007651 0.026414 -0.080000
v -0.003315 0.027299 -0.080000
v 0.001107 0.027478 -0.080000
v 0.005501 0.026944 -0.080000
v 0.009752 0.025713 -0.080000
v 0.013750 0.023816 -0.080000
v 0.017392 0.021302 -0.080000
v 0.020584 0.018236 -0.080000
v 0.023243 0.014698 -0.080000
v 0.025299 0.010779 -0.080000
v 0.026701 0.006581 -0.080000
v 0.027411 0.002213 -0.080000
v 0.027411 -0.002213 -0.080000
v 0.026701 -0.006581 -0.080000
v 0.025299 -0.010779 -0.080000
v 0.023243 -0.014698 -0.080000
v 0.020584 -0.018236 -0.080000
v 0.017392 -0.021302 -0.080000
v 0.013750 -0.023816 -0.080000
v 0.009752 -0.025713 -0.080000
v 0.005501 -0.026944 -0.080000
v 0.001107 -0.027478 -0.080000
v -0.003315 -0.027299 -0.080000
v -0.007651 -0.026414 -0.080000
v -0.011789 -0.024845 -0.080000
v -0.015622 -0.022632 -0.080000
v -0.019050 -0.019833 -0.080000
v -0.021985 -0.016520 -0.080000
v -0.024350 -0.012780 -0.080000
v -0.026085 -0.008708 -0.080000
v -0.027144 -0.004411 -0.080000
v -0.027500 0.000000 0.085000
v -0.027144 -0.004411 0.085000
v -0.026085 -0.008708 0.085000
v -0.024350 -0.012780 0.085000
v -0.021985 -0.016520 0.085000
v -0.019050 -0.019833 0.085000
v -0.015622 -0.022632 0.085000
v -0.011789 -0.024845 0.085000
v -0.007651 -0.026414 0.085000
v -0.003315 -0.027299 0.085000
v 0.001107 -0.027478 0.085000
v 0.005501 -0.026944 0.085000
v 0.009752 -0.025713 0.085000
v 0.013750 -0.023816 0.085000
v 0.017392 -0.021302 0.085000
v 0.020584 -0.018236 0.085000
v 0.023243 -0.014698 0.085000
v 0.025299 -0.010779 0.085000
v 0.026701 -0.006581 0.085000
v 0.027411 -0.002213 0.085000
v 0.027411 0.002213 0.085000
v 0.026701 0.006581 0.085000
v 0.025299 0.010779 0.085000
v 0.023243 0.014698 0.085000
v 0.020584 0.018236 0.085000
v 0.017392 0.021302 0.085000
v 0.013750 0.023816 0.085000
v 0.009752 0.025713 0.085000
v 0.005501 0.026944 0.085000
v 0.001107 0.027478 0.085000
v -0.003315 0.027299 0.085000
v -0.007651 0.026414 0.085000
v -0.011789 0.024845 0.085000
v -0.015622 0.022632 0.085000
v -0.019050 0.019833 0.085000
v -0.021985 0.016520 0.085000
v -0.024350 0.012780 0.085000
v -0.026085 0.008708 0.085000
v -0.027144 0.004411 0.085000
v -0.027500 0.000000 0.085000
v -0.027500 0.000000 -0.080000
v -0.027500 0.000000 0.085000
v -0.027144 0.004411 0.085000
v -0.026085 0.008708 0.085000
v -0.024350 0.012780 0.085000
v -0.021985 0.016520 0.085000
v -0.019050 0.019833 0.085000
v -0.015622 0.022632 0.085000
v -0.011789 0.024845 0.085000
v -0.007651 0.026414 0.085000
v -0.003315 0.027299 0.085000
v 0.001107 0.027478 0.085000
v 0.005501 0.026944 0.085000
v 0.009752 0.025713 0.085000
v 0.013750 0.023816 0.085000
v 0.017392 0.021302 0.085000
v 0.020584 0.018236 0.085000
v 0.023243 0.014698 0.085000
v 0.025299 0.010779 0.085000
v 0.026701 0.006581 0.085000
v 0.027411 0.002213 0.085000
v 0.027411 -0.002213 0.085000
v 0.026701 -0.006581 0.085000
v 0.025299 -0.010779 0.085000
v 0.023243 -0.014698 0.085000
v 0.020584 -0.018236 0.085000
v 0.017392 -0.021302 0.085000
v 0.013750 -0.023816 0.085000
v 0.009752 -0.025713 0.085000
v 0.005501 -0.026944 0.085000
v 0.001107 -0.027478 0.085000
v -0.003315 -0.027299 0.085000
v -0.007651 -0.026414 0.085000
v -0.011789 -0.024845 0.085000
v -0.015622 -0.022632 0.085000
v -0.019050 -0.019833 0.085000
v -0.021985 -0.016520 0.085000
v -0.024350 -0.012780 0.085000
v -0.026085 -0.008708 0.085000
v -0.027144 -0.004411 0.085000
v -0.030000 0.000000 0.085000
v -0.029631 -0.004693 0.085000
v -0.028532 -0.009271 0.085000
v -0.026730 -0.013620 0.085000
v -0.024271 -0.017634 0.085000
v -0.021213 -0.021213 0.085000
v -0.017634 -0.024271 0.085000
v -0.013620 -0.026730 0.085000
v -0.009271 -0.028532 0.085000
v -0.004693 -0.029631 0.085000
v 0.000000 -0.030000 0.085000
v 0.004693 -0.029631 0.085000
v 0.009271 -0.028532 0.085000
v 0.013620 -0.026730 0.085000
v 0.017634 -0.024271 0.085000
v 0.021213 -0.021213 0.085000
v 0.024271 -0.017634 0.085000
v 0.026730 -0.013620 0.085000
v 0.028532 -0.009271 0.085000
v 0.029631 -0.004693 0.085000
v 0.030000 0.000000 0.085000
v 0.029631 0.004693 0.085000
v 0.028532 0.009271 0.085000
v 0.026730 0.013620 0.085000
v 0.024271 0.017634 0.085000
v 0.021213 0.021213 0.085000
v 0.017634 0.024271 0.085000
v 0.013620 0.026730 0.085000
v 0.009271 0.028532 0.085000
v 0.004693 0.029631 0.085000
v 0.000000 0.030000 0.085000
v -0.004693 0.029631 0.085000
v -0.009271 0.028532 0.085000
v -0.013620 0.026730 0.085000
v -0.017634 0.024271 0.085000
v -0.021213 0.021213 0.085000
v -0.024271 0.017634 0.085000
v -0.026730 0.013620 0.085000
v -0.028532 0.009271 0.085000
v -0.029631 0.004693 0.085000
v -0.030000 0.000000 0.085000
v -0.029631 0.004693 0.085000
v -0.028532 0.009271 0.085000
v -0.026730 0.013620 0.085000
v -0.024271 0.017634 0.085000
v -0.021213 0.021213 0.085000
v -0.017634 0.024271 0.085000
v -0.013620 0.026730 0.085000
v -0.009271 0.028532 0.085000
v -0.004693 0.029631 0.085000
v 0.000000 0.030000 0.085000
v 0.004693 0.029631 0.085000
v 0.009271 0.028532 0.085000
v 0.013620 0.026730 0.085000
v 0.017634 0.024271 0.085000
v 0.021213 0.021213 0.085000
v 0.024271 0.017634 0.085000
v 0.026730 0.013620 0.085000
v 0.028532 0.009271 0.085000
v 0.029631 0.004693 0.085000
v 0.030000 0.000000 0.085000
v 0.029631 -0.004693 0.085000
v 0.028532 -0.009271 0.085000
v 0.026730 -0.013620 0.085000
v 0.024271 -0.017634 0.085000
v 0.021213 -0.021213 0.085000
v 0.017634 -0.024271 0.085000
v 0.013620 -0.026730 0.085000
v 0.009271 -0.028532 0.085000
v 0.004693 -0.029631 0.085000
v 0.000000 -0.030000 0.085000
v -0.004693 -0.029631 0.085000
v -0.009271 -0.028532 0.085000
v -0.013620 -0.026730 0.085000
v -0.017634 -0.024271 0.085000
v -0.021213 -0.021213 0.085000
v -0.024271 -0.017634 0.085000
v -0.026730 -0.013620 0.085000
v -0.028532 -0.009271 0.085000
v -0.029631 -0.004693 0.085000
v -0.030000 0.000000 -0.085000
v -0.029631 -0.004693 -0.085000
v -0.028532 -0.009271 -0.085000
v -0.026730 -0.013620 -0.085000
v -0.024271 -0.017634 -0.085000
v -0.021213 -0.021213 -0.085000
v -0.017634 -0.024271 -0.085000
v -0.013620 -0.026730 -0.085000
v -0.009271 -0.028532 -0.085000
v -0.004693 -0.029631 -0.085000
v 0.000000 -0.030000 -0.085000
v 0.004693 -0.029631 -0.085000
v 0.009271 -0.028532 -0.085000
v 0.013620 -0.026730 -0.085000
v 0.017634 -0.024271 -0.085000
v 0.021213 -0.021213 -0.085000
v 0.024271 -0.017634 -0.085000
v 0.026730 -0.013620 -0.085000
v 0.028532 -0.009271 -0.085000
v 0.029631 -0.004693 -0.085000
v 0.030000 0.000000 -0.085000
v 0.029631 0.004693 -0.085000
v 0.028532 0.009271 -0.085000
v 0.026730 0.013620 -0.085000
v 0.024271 0.017634 -0.085000
v 0.021213 0.021213 -0.085000
v 0.017634 0.024271 -0.085000
v 0.013620 0.026730 -0.085000
v 0.009271 0.028532 -0.085000
v 0.004693 0.029631 -0.085000
v 0.000000 0.030000 -0.085000
v -0.004693 0.029631 -0.085000
v -0.009271 0.028532 -0.085000
v -0.013620 0.026730 -0.085000
v -0.017634 0.024271 -0.085000
v -0.021213 0.021213 -0.085000
v -0.024271 0.017634 -0.085000
v -0.026730 0.013620 -0.085000
v -0.028532 0.009271 -0.085000
v -0.029631 0.004693 -0.085000
v -0.030000 0.000000 0.085000
v -0.030000 0.000000 -0.085000
v -0.030000 0.000000 -0.085000
v -0.029631 0.004693 -0.085000
v -0.028532 0.009271 -0.085000
v -0.026730 0.013620 -0.085000
v -0.024271 0.017634 -0.085000
v -0.021213 0.021213 -0.085000
v -0.017634 0.024271 -0.085000
v -0.013620 0.026730 -0.085000
v -0.009271 0.028532 -0.085000
v -0.004693 0.029631 -0.085000
v 0.000000 0.030000 -0.085000
v 0.004693 0.029631 -0.085000
v 0.009271 0.028532 -0.085000
v 0.013620 0.026730 -0.085000
v 0.017634 0.024271 -0.085000
v 0.021213 0.021213 -0.085000
v 0.024271 0.017634 -0.085000
v 0.026730 0.013620 -0.085000
v 0.028532 0.009271 -0.085000
v 0.029631 0.004693 -0.085000
v 0.030000 0.000000 -0.085000
v 0.029631 -0.004693 -0.085000
v 0.028532 -0.009271 -0.085000
v 0.026730 -0.013620 -0.085000
v 0.024271 -0.017634 -0.085000
v 0.021213 -0.021213 -0.085000
v 0.017634 -0.024271 -0.085000
v 0.013620 -0.026730 -0.085000
v 0.009271 -0.028532 -0.085000
v 0.004693 -0.029631 -0.085000
v 0.000000 -0.030000 -0.085000
v -0.004693 -0.029631 -0.085000
v -0.009271 -0.028532 -0.085000
v -0.013620 -0.026730 -0.085000
v -0.017634 -0.024271 -0.085000
v -0.021213 -0.021213 -0.085000
v -0.024271 -0.017634 -0.085000
v -0.026730 -0.013620 -0.085000
v -0.028532 -0.009271 -0.085000
v -0.029631 -0.004693 -0.085000
f 1 2 39
f 39 2 38
f 38 2 3
f 38 3 37
f 37 3 4
f 37 4 36
f 36 4 35
f 35 4 34
f 34 4 33
f 33 4 32
f 32 4 31
f 31 4 30
f 30 4 29
f 29 4 28
f 28 4 27
f 27 4 5
f 27 5 26
f 26 5 25
f 25 5 24
f 24 5 23
f 23 5 22
f 22 5 21
f 21 5 20
f 20 5 19
f 19 5 18
f 18 5 17
f 17 5 16
f 16 5 6
f 16 6 15
f 15 6 7
f 15 7 14
f 14 7 8
f 14 8 13
f 13 8 9
f 13 9 12
f 12 9 10
f 12 10 11
f 41 117 40
f 40 117 118
f 119 79 78
f 78 79 80
f 78 80 77
f 77 80 81
f 77 81 76
f 76 81 82
f 76 82 75
f 75 82 83
f 75 83 74
f 74 83 84
f 74 84 73
f 73 84 85
f 73 85 72
f 72 85 86
f 72 86 71
f 71 86 87
f 71 87 70
f 70 87 88
f 70 88 69
f 69 88 89
f 69 89 68
f 68 89 90
f 68 90 67
f 67 90 91
f 67 91 66
f 66 91 92
f 66 92 65
f 65 92 93
f 65 93 64
f 64 93 94
f 64 94 63
f 63 94 95
f 63 95 62
f 62 95 96
f 62 96 61
f 61 96 97
f 61 97 60
f 60 97 98
f 60 98 59
f 59 98 99
f 59 99 58
f 58 99 100
f 58 100 57
f 57 100 101
f 57 101 56
f 56 101 102
f 56 102 55
f 55 102 103
f 55 103 54
f 54 103 104
f 54 104 53
f 53 104 105
f 53 105 52
f 52 105 106
f 52 106 51
f 51 106 107
f 51 107 50
f 50 107 108
f 50 108 49
f 49 108 109
f 49 109 48
f 48 109 110
f 48 110 47
f 47 110 111
f 47 111 46
f 46 111 112
f 46 112 45
f 45 112 113
f 45 113 44
f 44 113 114
f 44 114 43
f 43 114 115
f 43 115 42
f 42 115 116
f 42 116 41
f 41 116 117
f 121 198 120
f 120 198 159
f 120 159 160
f 198 121 197
f 197 121 122
f 197 122 196
f 196 122 123
f 196 123 195
f 195 123 124
f 195 124 194
f 194 124 125
f 194 125 193
f 193 125 126
f 193 126 192
f 192 126 127
f 192 127 191
f 191 127 128
f 191 128 190
f 190 128 129
f 190 129 189
f 189 129 130
f 189 130 188
f 188 130 131
f 188 131 187
f 187 131 132
f 187 132 186
f 186 132 133
f 186 133 185
f 185 133 134
f 185 134 184
f 184 134 135
f 184 135 183
f 183 135 136
f 183 136 182
f 182 136 137
f 182 137 181
f 181 137 138
f 181 138 180
f 180 138 139
f 180 139 179
f 179 139 140
f 179 140 178
f 178 140 141
f 178 141 177
f 177 141 142
f 177 142 176
f 176 142 143
f 176 143 175
f 175 143 144
f 175 144 174
f 174 144 145
f 174 145 173
f 173 145 146
f 173 146 172
f 172 146 147
f 172 147 171
f 171 147 148
f 171 148 170
f 170 148 149
f 170 149 169
f 169 149 150
f 169 150 168
f 168 150 151
f 168 151 167
f 167 151 152
f 167 152 166
f 166 152 153
f 166 153 165
f 165 153 154
f 165 154 164
f 164 154 155
f 164 155 163
f 163 155 156
f 163 156 162
f 162 156 157
f 162 157 161
f 161 157 158
f 161 158 160
f 160 158 120
f 200 278 199
f 199 278 280
f 279 239 238
f 238 239 240
f 238 240 237
f 237 240 241
f 237 241 236
f 236 241 242
f 236 242 235
f 235 242 243
f 235 243 234
f 234 243 244
f 234 244 233
f 233 244 245
f 233 245 232
f 232 245 246
f 232 246 231
f 231 246 247
f 231 247 230
f 230 247 248
f 230 248 229
f 229 248 249
f 229 249 228
f 228 249 250
f 228 250 227
f 227 250 251
f 227 251 226
f 226 251 252
f 226 252 225
f 225 252 253
f 225 253 224
f 224 253 254
f 224 254 223
f 223 254 255
f 223 255 222
f 222 255 256
f 222 256 221
f 221 256 257
f 221 257 220
f 220 257 258
f 220 258 219
f 219 258 259
f 219 259 218
f 218 259 260
f 218 260 217
f 217 260 261
f 217 261 216
f 216 261 262
f 216 262 215
f 215 262 263
f 215 263 214
f 214 263 264
f 214 264 213
f 213 264 265
f 213 265 212
f 212 265 266
f 212 266 211
f 211 266 267
f 211 267 210
f 210 267 268
f 210 268 209
f 209 268 269
f 209 269 208
f 208 269 270
f 208 270 207
f 207 270 271
f 207 271 206
f 206 271 272
f 206 272 205
f 205 272 273
f 205 273 204
f 204 273 274
f 204 274 203
f 203 274 275
f 203 275 202
f 202 275 276
f 202 276 201
f 201 276 277
f 201 277 200
f 200 277 278
f 282 300 281
f 281 300 301
f 281 301 320
f 320 301 302
f 320 302 319
f 319 302 303
f 319 303 318
f 318 303 304
f 318 304 317
f 317 304 305
f 317 305 316
f 316 305 306
f 316 306 315
f 315 306 307
f 315 307 314
f 314 307 308
f 314 308 313
f 313 308 309
f 313 309 312
f 312 309 310
f 312 310 311
f 300 282 299
f 299 282 283
f 299 283 298
f 298 283 284
f 298 284 297
f 297 284 285
f 297 285 296
f 296 285 286
f 296 286 295
f 295 286 287
f 295 287 294
f 294 287 288
f 294 288 293
f 293 288 289
f 293 289 292
f 292 289 290
f 292 290 291
