# source_200.usdz → FP++ mesh (m, ×1) — 원점 = 바닥 위 0.0850 m · x y = 둘레 중심 (scripts/ops/fpp_object.py, 손으로 고치지 않는다)
v 0.02900000 0.00000000 -0.08500000
v 0.02858286 0.00490102 -0.08500000
v 0.02734344 0.00966105 -0.08500000
v 0.02531741 0.01414315 -0.08500000
v 0.02256304 0.01821838 -0.08500000
v 0.01915957 0.02176950 -0.08500000
v 0.01520491 0.02469434 -0.08500000
v 0.01081284 0.02690878 -0.08500000
v 0.00610970 0.02834910 -0.08500000
v 0.00123079 0.02897387 -0.08500000
v -0.00368352 0.02876511 -0.08500000
v -0.00849186 0.02772883 -0.08500000
v -0.01305591 0.02589485 -0.08500000
v -0.01724436 0.02331592 -0.08500000
v -0.02093673 0.02006623 -0.08500000
v -0.02402678 0.01623927 -0.08500000
v -0.02642563 0.01194514 -0.08500000
v -0.02806426 0.00730736 -0.08500000
v -0.02889553 0.00245937 -0.08500000
v -0.02889553 -0.00245937 -0.08500000
v -0.02806426 -0.00730736 -0.08500000
v -0.02642563 -0.01194514 -0.08500000
v -0.02402678 -0.01623927 -0.08500000
v -0.02093673 -0.02006623 -0.08500000
v -0.01724436 -0.02331592 -0.08500000
v -0.01305591 -0.02589485 -0.08500000
v -0.00849186 -0.02772883 -0.08500000
v -0.00368352 -0.02876511 -0.08500000
v 0.00123079 -0.02897387 -0.08500000
v 0.00610970 -0.02834910 -0.08500000
v 0.01081284 -0.02690878 -0.08500000
v 0.01520491 -0.02469434 -0.08500000
v 0.01915957 -0.02176950 -0.08500000
v 0.02256304 -0.01821838 -0.08500000
v 0.02531741 -0.01414315 -0.08500000
v 0.02734344 -0.00966105 -0.08500000
v 0.02858286 -0.00490102 -0.08500000
v 0.03000000 0.00000000 -0.08400000
v 0.02959084 -0.00493784 -0.08400000
v 0.02837452 -0.00974098 -0.08400000
v 0.02638421 -0.01427842 -0.08400000
v 0.02367422 -0.01842638 -0.08400000
v 0.02031845 -0.02207172 -0.08400000
v 0.01640844 -0.02511499 -0.08400000
v 0.01205086 -0.02747320 -0.08400000
v 0.00736456 -0.02908201 -0.08400000
v 0.00247738 -0.02989753 -0.08400000
v -0.00247738 -0.02989753 -0.08400000
v -0.00736456 -0.02908201 -0.08400000
v -0.01205086 -0.02747320 -0.08400000
v -0.01640844 -0.02511499 -0.08400000
v -0.02031845 -0.02207172 -0.08400000
v -0.02367422 -0.01842638 -0.08400000
v -0.02638421 -0.01427842 -0.08400000
v -0.02837452 -0.00974098 -0.08400000
v -0.02959084 -0.00493784 -0.08400000
v -0.03000000 0.00000000 -0.08400000
v -0.02959084 0.00493784 -0.08400000
v -0.02837452 0.00974098 -0.08400000
v -0.02638421 0.01427842 -0.08400000
v -0.02367422 0.01842638 -0.08400000
v -0.02031845 0.02207172 -0.08400000
v -0.01640844 0.02511499 -0.08400000
v -0.01205086 0.02747320 -0.08400000
v -0.00736456 0.02908201 -0.08400000
v -0.00247738 0.02989753 -0.08400000
v 0.00247738 0.02989753 -0.08400000
v 0.00736456 0.02908201 -0.08400000
v 0.01205086 0.02747320 -0.08400000
v 0.01640844 0.02511499 -0.08400000
v 0.02031845 0.02207172 -0.08400000
v 0.02367422 0.01842638 -0.08400000
v 0.02638421 0.01427842 -0.08400000
v 0.02837452 0.00974098 -0.08400000
v 0.02959084 0.00493784 -0.08400000
v -0.03000000 0.00000000 -0.08400000
v -0.02930902 0.00000000 -0.08495106
v -0.02958779 0.00000000 -0.08480902
v -0.02958779 0.00000000 -0.08480902
v -0.02980902 0.00000000 -0.08458778
v -0.02980902 0.00000000 -0.08458778
v -0.02995106 0.00000000 -0.08430902
v -0.02995106 0.00000000 -0.08430902
v 0.02890928 0.00482411 -0.08495106
v 0.02918425 0.00486999 -0.08480902
v 0.02940246 0.00490640 -0.08458778
v 0.02954256 0.00492978 -0.08430902
v 0.02995106 0.00000000 -0.08430902
v 0.02980902 0.00000000 -0.08458778
v 0.02958779 0.00000000 -0.08480902
v 0.02930902 0.00000000 -0.08495106
v 0.02772097 0.00951662 -0.08495106
v 0.02798464 0.00960714 -0.08480902
v 0.02819388 0.00967897 -0.08458778
v 0.02832823 0.00972509 -0.08430902
v 0.02577651 0.01394955 -0.08495106
v 0.02602168 0.01408223 -0.08480902
v 0.02621625 0.01418752 -0.08458778
v 0.02634117 0.01425513 -0.08430902
v 0.02312893 0.01800197 -0.08495106
v 0.02334892 0.01817319 -0.08480902
v 0.02352350 0.01830908 -0.08458778
v 0.02363559 0.01839632 -0.08430902
v 0.01985046 0.02156334 -0.08495106
v 0.02003926 0.02176844 -0.08480902
v 0.02018910 0.02193121 -0.08458778
v 0.02028530 0.02203571 -0.08430902
v 0.01603051 0.02453653 -0.08495106
v 0.01618298 0.02476990 -0.08480902
v 0.01630399 0.02495511 -0.08458778
v 0.01638168 0.02507402 -0.08430902
v 0.01177330 0.02684042 -0.08495106
v 0.01188528 0.02709570 -0.08480902
v 0.01197415 0.02729830 -0.08458778
v 0.01203120 0.02742838 -0.08430902
v 0.00719494 0.02841217 -0.08495106
v 0.00726337 0.02868241 -0.08480902
v 0.00731768 0.02889687 -0.08458778
v 0.00735255 0.02903456 -0.08430902
v 0.00242032 0.02920891 -0.08495106
v 0.00244334 0.02948673 -0.08480902
v 0.00246161 0.02970720 -0.08458778
v 0.00247334 0.02984876 -0.08430902
v -0.00242032 0.02920891 -0.08495106
v -0.00244334 0.02948673 -0.08480902
v -0.00246161 0.02970720 -0.08458778
v -0.00247334 0.02984876 -0.08430902
v -0.00719494 0.02841217 -0.08495106
v -0.00726337 0.02868241 -0.08480902
v -0.00731768 0.02889687 -0.08458778
v -0.00735255 0.02903456 -0.08430902
v -0.01177330 0.02684042 -0.08495106
v -0.01188528 0.02709570 -0.08480902
v -0.01197415 0.02729830 -0.08458778
v -0.01203120 0.02742838 -0.08430902
v -0.01603051 0.02453653 -0.08495106
v -0.01618298 0.02476990 -0.08480902
v -0.01630399 0.02495511 -0.08458778
v -0.01638168 0.02507402 -0.08430902
v -0.01985046 0.02156334 -0.08495106
v -0.02003926 0.02176844 -0.08480902
v -0.02018910 0.02193121 -0.08458778
v -0.02028530 0.02203571 -0.08430902
v -0.02312893 0.01800197 -0.08495106
v -0.02334892 0.01817319 -0.08480902
v -0.02352350 0.01830908 -0.08458778
v -0.02363559 0.01839632 -0.08430902
v -0.02577651 0.01394955 -0.08495106
v -0.02602168 0.01408223 -0.08480902
v -0.02621625 0.01418752 -0.08458778
v -0.02634117 0.01425513 -0.08430902
v -0.02772097 0.00951662 -0.08495106
v -0.02798464 0.00960714 -0.08480902
v -0.02819388 0.00967897 -0.08458778
v -0.02832823 0.00972509 -0.08430902
v -0.02890928 0.00482411 -0.08495106
v -0.02918425 0.00486999 -0.08480902
v -0.02940246 0.00490640 -0.08458778
v -0.02954256 0.00492978 -0.08430902
v -0.02890928 -0.00482411 -0.08495106
v -0.02918425 -0.00486999 -0.08480902
v -0.02940246 -0.00490640 -0.08458778
v -0.02954256 -0.00492978 -0.08430902
v -0.02930902 0.00000000 -0.08495106
v -0.02772097 -0.00951662 -0.08495106
v -0.02798464 -0.00960714 -0.08480902
v -0.02819388 -0.00967897 -0.08458778
v -0.02832823 -0.00972509 -0.08430902
v -0.02577651 -0.01394955 -0.08495106
v -0.02602168 -0.01408223 -0.08480902
v -0.02621625 -0.01418752 -0.08458778
v -0.02634117 -0.01425513 -0.08430902
v -0.02312893 -0.01800197 -0.08495106
v -0.02334892 -0.01817319 -0.08480902
v -0.02352350 -0.01830908 -0.08458778
v -0.02363559 -0.01839632 -0.08430902
v -0.01985046 -0.02156334 -0.08495106
v -0.02003926 -0.02176844 -0.08480902
v -0.02018910 -0.02193121 -0.08458778
v -0.02028530 -0.02203571 -0.08430902
v -0.01603051 -0.02453653 -0.08495106
v -0.01618298 -0.02476990 -0.08480902
v -0.01630399 -0.02495511 -0.08458778
v -0.01638168 -0.02507402 -0.08430902
v -0.01177330 -0.02684042 -0.08495106
v -0.01188528 -0.02709570 -0.08480902
v -0.01197415 -0.02729830 -0.08458778
v -0.01203120 -0.02742838 -0.08430902
v -0.00719494 -0.02841217 -0.08495106
v -0.00726337 -0.02868241 -0.08480902
v -0.00731768 -0.02889687 -0.08458778
v -0.00735255 -0.02903456 -0.08430902
v -0.00242032 -0.02920891 -0.08495106
v -0.00244334 -0.02948673 -0.08480902
v -0.00246161 -0.02970720 -0.08458778
v -0.00247334 -0.02984876 -0.08430902
v 0.00242032 -0.02920891 -0.08495106
v 0.00244334 -0.02948673 -0.08480902
v 0.00246161 -0.02970720 -0.08458778
v 0.00247334 -0.02984876 -0.08430902
v 0.00719494 -0.02841217 -0.08495106
v 0.00726337 -0.02868241 -0.08480902
v 0.00731768 -0.02889687 -0.08458778
v 0.00735255 -0.02903456 -0.08430902
v 0.01177330 -0.02684042 -0.08495106
v 0.01188528 -0.02709570 -0.08480902
v 0.01197415 -0.02729830 -0.08458778
v 0.01203120 -0.02742838 -0.08430902
v 0.01603051 -0.02453653 -0.08495106
v 0.01618298 -0.02476990 -0.08480902
v 0.01630399 -0.02495511 -0.08458778
v 0.01638168 -0.02507402 -0.08430902
v 0.01985046 -0.02156334 -0.08495106
v 0.02003926 -0.02176844 -0.08480902
v 0.02018910 -0.02193121 -0.08458778
v 0.02028530 -0.02203571 -0.08430902
v 0.02312893 -0.01800197 -0.08495106
v 0.02334892 -0.01817319 -0.08480902
v 0.02352350 -0.01830908 -0.08458778
v 0.02363559 -0.01839632 -0.08430902
v 0.02577651 -0.01394955 -0.08495106
v 0.02602168 -0.01408223 -0.08480902
v 0.02621625 -0.01418752 -0.08458778
v 0.02634117 -0.01425513 -0.08430902
v 0.02772097 -0.00951662 -0.08495106
v 0.02798464 -0.00960714 -0.08480902
v 0.02819388 -0.00967897 -0.08458778
v 0.02832823 -0.00972509 -0.08430902
v 0.02890928 -0.00482411 -0.08495106
v 0.02918425 -0.00486999 -0.08480902
v 0.02940246 -0.00490640 -0.08458778
v 0.02954256 -0.00492978 -0.08430902
v -0.02889553 0.00245937 -0.08500000
v -0.03000000 0.00000000 0.00716739
v -0.02959084 0.00493784 0.00716739
v -0.02837452 0.00974098 0.00716739
v -0.02638421 0.01427842 0.00716739
v -0.02367422 0.01842638 0.00716739
v -0.02031845 0.02207172 0.00716739
v -0.01640844 0.02511499 0.00716739
v -0.01205086 0.02747320 0.00716739
v -0.00736456 0.02908201 0.00716739
v -0.00247738 0.02989753 0.00716739
v 0.00247738 0.02989753 0.00716739
v 0.00736456 0.02908201 0.00716739
v 0.01205086 0.02747320 0.00716739
v 0.01640844 0.02511499 0.00716739
v 0.02031845 0.02207172 0.00716739
v 0.02367422 0.01842638 0.00716739
v 0.02638421 0.01427842 0.00716739
v 0.02837452 0.00974098 0.00716739
v 0.02959084 0.00493784 0.00716739
v 0.03000000 0.00000000 0.00716739
v 0.02959084 -0.00493784 0.00716739
v 0.02837452 -0.00974098 0.00716739
v 0.02638421 -0.01427842 0.00716739
v 0.02367422 -0.01842638 0.00716739
v 0.02031845 -0.02207172 0.00716739
v 0.01640844 -0.02511499 0.00716739
v 0.01205086 -0.02747320 0.00716739
v 0.00736456 -0.02908201 0.00716739
v 0.00247738 -0.02989753 0.00716739
v -0.00247738 -0.02989753 0.00716739
v -0.00736456 -0.02908201 0.00716739
v -0.01205086 -0.02747320 0.00716739
v -0.01640844 -0.02511499 0.00716739
v -0.02031845 -0.02207172 0.00716739
v -0.02367422 -0.01842638 0.00716739
v -0.02638421 -0.01427842 0.00716739
v -0.02837452 -0.00974098 0.00716739
v -0.02959084 -0.00493784 0.00716739
v 0.03000000 0.00000000 -0.08400000
v 0.02959084 0.00493784 -0.08400000
v 0.02837452 0.00974098 -0.08400000
v 0.02638421 0.01427842 -0.08400000
v 0.02367422 0.01842638 -0.08400000
v 0.02031845 0.02207172 -0.08400000
v 0.01640844 0.02511499 -0.08400000
v 0.01205086 0.02747320 -0.08400000
v 0.00736456 0.02908201 -0.08400000
v 0.00247738 0.02989753 -0.08400000
v -0.00247738 0.02989753 -0.08400000
v -0.00736456 0.02908201 -0.08400000
v -0.01205086 0.02747320 -0.08400000
v -0.01640844 0.02511499 -0.08400000
v -0.02031845 0.02207172 -0.08400000
v -0.02367422 0.01842638 -0.08400000
v -0.02638421 0.01427842 -0.08400000
v -0.02837452 0.00974098 -0.08400000
v -0.02959084 0.00493784 -0.08400000
v -0.03000000 0.00000000 -0.08400000
v -0.02959084 -0.00493784 -0.08400000
v -0.02837452 -0.00974098 -0.08400000
v -0.02638421 -0.01427842 -0.08400000
v -0.02367422 -0.01842638 -0.08400000
v -0.02031845 -0.02207172 -0.08400000
v -0.01640844 -0.02511499 -0.08400000
v -0.01205086 -0.02747320 -0.08400000
v -0.00736456 -0.02908201 -0.08400000
v -0.00247738 -0.02989753 -0.08400000
v 0.00247738 -0.02989753 -0.08400000
v 0.00736456 -0.02908201 -0.08400000
v 0.01205086 -0.02747320 -0.08400000
v 0.01640844 -0.02511499 -0.08400000
v 0.02031845 -0.02207172 -0.08400000
v 0.02367422 -0.01842638 -0.08400000
v 0.02638421 -0.01427842 -0.08400000
v 0.02837452 -0.00974098 -0.08400000
v 0.02959084 -0.00493784 -0.08400000
v -0.03000000 0.00000000 -0.08400000
v -0.03000000 0.00000000 0.00716739
v 0.02900000 0.00000000 -0.08500000
v 0.02858286 -0.00490102 -0.08500000
v 0.02734344 -0.00966105 -0.08500000
v 0.02531741 -0.01414315 -0.08500000
v 0.02256304 -0.01821838 -0.08500000
v 0.01915957 -0.02176950 -0.08500000
v 0.01520491 -0.02469434 -0.08500000
v 0.01081284 -0.02690878 -0.08500000
v 0.00610970 -0.02834910 -0.08500000
v 0.00123079 -0.02897387 -0.08500000
v -0.00368352 -0.02876511 -0.08500000
v -0.00849186 -0.02772883 -0.08500000
v -0.01305591 -0.02589485 -0.08500000
v -0.01724436 -0.02331592 -0.08500000
v -0.02093673 -0.02006623 -0.08500000
v -0.02402678 -0.01623927 -0.08500000
v -0.02642563 -0.01194514 -0.08500000
v -0.02806426 -0.00730736 -0.08500000
v -0.02889553 -0.00245937 -0.08500000
v -0.02889553 0.00245937 -0.08500000
v -0.02806426 0.00730736 -0.08500000
v -0.02642563 0.01194514 -0.08500000
v -0.02402678 0.01623927 -0.08500000
v -0.02093673 0.02006623 -0.08500000
v -0.01724436 0.02331592 -0.08500000
v -0.01305591 0.02589485 -0.08500000
v -0.00849186 0.02772883 -0.08500000
v -0.00368352 0.02876511 -0.08500000
v 0.00123079 0.02897387 -0.08500000
v 0.00610970 0.02834910 -0.08500000
v 0.01081284 0.02690878 -0.08500000
v 0.01520491 0.02469434 -0.08500000
v 0.01915957 0.02176950 -0.08500000
v 0.02256304 0.01821838 -0.08500000
v 0.02531741 0.01414315 -0.08500000
v 0.02734344 0.00966105 -0.08500000
v 0.02858286 0.00490102 -0.08500000
v 0.01100000 0.00000000 0.11500000
v 0.01059209 0.00296776 0.11500000
v 0.00939861 0.00571542 0.11500000
v 0.00750808 0.00803920 0.11500000
v 0.00506072 0.00976674 0.11500000
v 0.00223802 0.01076993 0.11500000
v -0.00075067 0.01097436 0.11500000
v -0.00368368 0.01036487 0.11500000
v -0.00634348 0.00898667 0.11500000
v -0.00853282 0.00694197 0.11500000
v -0.01008932 0.00438241 0.11500000
v -0.01089754 0.00149783 0.11500000
v -0.01089754 -0.00149783 0.11500000
v -0.01008932 -0.00438241 0.11500000
v -0.00853282 -0.00694197 0.11500000
v -0.00634348 -0.00898667 0.11500000
v -0.00368368 -0.01036487 0.11500000
v -0.00075067 -0.01097436 0.11500000
v 0.00223802 -0.01076993 0.11500000
v 0.00506072 -0.00976674 0.11500000
v 0.00750808 -0.00803920 0.11500000
v 0.00939861 -0.00571542 0.11500000
v 0.01059209 -0.00296776 0.11500000
v 0.01000000 0.00000000 0.11400000
v 0.00959493 -0.00281733 0.11400000
v 0.00841254 -0.00540641 0.11400000
v 0.00654861 -0.00755750 0.11400000
v 0.00415415 -0.00909632 0.11400000
v 0.00142315 -0.00989821 0.11400000
v -0.00142315 -0.00989821 0.11400000
v -0.00415415 -0.00909632 0.11400000
v -0.00654861 -0.00755750 0.11400000
v -0.00841254 -0.00540641 0.11400000
v -0.00959493 -0.00281733 0.11400000
v -0.01000000 0.00000000 0.11400000
v -0.00959493 0.00281733 0.11400000
v -0.00841254 0.00540641 0.11400000
v -0.00654861 0.00755750 0.11400000
v -0.00415415 0.00909632 0.11400000
v -0.00142315 0.00989821 0.11400000
v 0.00142315 0.00989821 0.11400000
v 0.00415415 0.00909632 0.11400000
v 0.00654861 0.00755750 0.11400000
v 0.00841254 0.00540641 0.11400000
v 0.00959493 0.00281733 0.11400000
v -0.01000000 0.00000000 0.11400000
v -0.01069098 0.00000000 0.11495106
v -0.01041221 0.00000000 0.11480902
v -0.01041221 0.00000000 0.11480902
v -0.01019098 0.00000000 0.11458778
v -0.01019098 0.00000000 0.11458778
v -0.01004894 0.00000000 0.11430902
v -0.01004894 0.00000000 0.11430902
v 0.01032670 0.00276703 0.11495106
v 0.01005743 0.00269488 0.11480902
v 0.00984373 0.00263762 0.11458778
v 0.00970653 0.00260086 0.11430902
v 0.01004894 0.00000000 0.11430902
v 0.01019098 0.00000000 0.11458778
v 0.01041221 0.00000000 0.11480902
v 0.01069098 0.00000000 0.11495106
v 0.00925866 0.00534549 0.11495106
v 0.00901724 0.00520611 0.11480902
v 0.00882565 0.00509549 0.11458778
v 0.00870264 0.00502447 0.11430902
v 0.00755967 0.00755967 0.11495106
v 0.00736255 0.00736255 0.11480902
v 0.00720611 0.00720611 0.11458778
v 0.00710568 0.00710568 0.11430902
v 0.00534549 0.00925866 0.11495106
v 0.00520611 0.00901724 0.11480902
v 0.00509549 0.00882565 0.11458778
v 0.00502447 0.00870264 0.11430902
v 0.00276703 0.01032670 0.11495106
v 0.00269488 0.01005743 0.11480902
v 0.00263762 0.00984373 0.11458778
v 0.00260086 0.00970653 0.11430902
v 0.00000000 0.01069098 0.11495106
v 0.00000000 0.01041221 0.11480902
v 0.00000000 0.01019098 0.11458778
v 0.00000000 0.01004894 0.11430902
v -0.00276703 0.01032670 0.11495106
v -0.00269488 0.01005743 0.11480902
v -0.00263762 0.00984373 0.11458778
v -0.00260086 0.00970653 0.11430902
v -0.00534549 0.00925866 0.11495106
v -0.00520611 0.00901724 0.11480902
v -0.00509549 0.00882565 0.11458778
v -0.00502447 0.00870264 0.11430902
v -0.00755967 0.00755967 0.11495106
v -0.00736255 0.00736255 0.11480902
v -0.00720611 0.00720611 0.11458778
v -0.00710568 0.00710568 0.11430902
v -0.00925866 0.00534549 0.11495106
v -0.00901724 0.00520611 0.11480902
v -0.00882565 0.00509549 0.11458778
v -0.00870264 0.00502447 0.11430902
v -0.01032670 0.00276703 0.11495106
v -0.01005743 0.00269488 0.11480902
v -0.00984373 0.00263762 0.11458778
v -0.00970653 0.00260086 0.11430902
v -0.01032670 -0.00276703 0.11495106
v -0.01005743 -0.00269488 0.11480902
v -0.00984373 -0.00263762 0.11458778
v -0.00970653 -0.00260086 0.11430902
v -0.01069098 0.00000000 0.11495106
v -0.00925866 -0.00534549 0.11495106
v -0.00901724 -0.00520611 0.11480902
v -0.00882565 -0.00509549 0.11458778
v -0.00870264 -0.00502447 0.11430902
v -0.00755967 -0.00755967 0.11495106
v -0.00736255 -0.00736255 0.11480902
v -0.00720611 -0.00720611 0.11458778
v -0.00710568 -0.00710568 0.11430902
v -0.00534549 -0.00925866 0.11495106
v -0.00520611 -0.00901724 0.11480902
v -0.00509549 -0.00882565 0.11458778
v -0.00502447 -0.00870264 0.11430902
v -0.00276703 -0.01032670 0.11495106
v -0.00269488 -0.01005743 0.11480902
v -0.00263762 -0.00984373 0.11458778
v -0.00260086 -0.00970653 0.11430902
v 0.00000000 -0.01069098 0.11495106
v 0.00000000 -0.01041221 0.11480902
v 0.00000000 -0.01019098 0.11458778
v 0.00000000 -0.01004894 0.11430902
v 0.00276703 -0.01032670 0.11495106
v 0.00269488 -0.01005743 0.11480902
v 0.00263762 -0.00984373 0.11458778
v 0.00260086 -0.00970653 0.11430902
v 0.00534549 -0.00925866 0.11495106
v 0.00520611 -0.00901724 0.11480902
v 0.00509549 -0.00882565 0.11458778
v 0.00502447 -0.00870264 0.11430902
v 0.00755967 -0.00755967 0.11495106
v 0.00736255 -0.00736255 0.11480902
v 0.00720611 -0.00720611 0.11458778
v 0.00710568 -0.00710568 0.11430902
v 0.00925866 -0.00534549 0.11495106
v 0.00901724 -0.00520611 0.11480902
v 0.00882565 -0.00509549 0.11458778
v 0.00870264 -0.00502447 0.11430902
v 0.01032670 -0.00276703 0.11495106
v 0.01005743 -0.00269488 0.11480902
v 0.00984373 -0.00263762 0.11458778
v 0.00970653 -0.00260086 0.11430902
v -0.01089754 0.00149783 0.11500000
v 0.01400000 0.00000000 0.11500000
v 0.01359318 0.00335042 0.11500000
v 0.01239638 0.00650612 0.11500000
v 0.01047915 0.00928372 0.11500000
v 0.00795291 0.01152177 0.11500000
v 0.00496447 0.01309023 0.11500000
v 0.00168751 0.01389792 0.11500000
v -0.00168751 0.01389792 0.11500000
v -0.00496447 0.01309023 0.11500000
v -0.00795291 0.01152177 0.11500000
v -0.01047915 0.00928372 0.11500000
v -0.01239638 0.00650612 0.11500000
v -0.01359318 0.00335042 0.11500000
v -0.01400000 0.00000000 0.11500000
v -0.01359318 -0.00335042 0.11500000
v -0.01239638 -0.00650612 0.11500000
v -0.01047915 -0.00928372 0.11500000
v -0.00795291 -0.01152177 0.11500000
v -0.00496447 -0.01309023 0.11500000
v -0.00168751 -0.01389792 0.11500000
v 0.00168751 -0.01389792 0.11500000
v 0.00496447 -0.01309023 0.11500000
v 0.00795291 -0.01152177 0.11500000
v 0.01047915 -0.00928372 0.11500000
v 0.01239638 -0.00650612 0.11500000
v 0.01359318 -0.00335042 0.11500000
v 0.01100000 0.00000000 0.11500000
v 0.01059209 -0.00296776 0.11500000
v 0.00939861 -0.00571542 0.11500000
v 0.00750808 -0.00803920 0.11500000
v 0.00506072 -0.00976674 0.11500000
v 0.00223802 -0.01076993 0.11500000
v -0.00075067 -0.01097436 0.11500000
v -0.00368368 -0.01036487 0.11500000
v -0.00634348 -0.00898667 0.11500000
v -0.00853282 -0.00694197 0.11500000
v -0.01008932 -0.00438241 0.11500000
v -0.01089754 -0.00149783 0.11500000
v -0.01089754 0.00149783 0.11500000
v -0.01008932 0.00438241 0.11500000
v -0.00853282 0.00694197 0.11500000
v -0.00634348 0.00898667 0.11500000
v -0.00368368 0.01036487 0.11500000
v -0.00075067 0.01097436 0.11500000
v 0.00223802 0.01076993 0.11500000
v 0.00506072 0.00976674 0.11500000
v 0.00750808 0.00803920 0.11500000
v 0.00939861 0.00571542 0.11500000
v 0.01059209 0.00296776 0.11500000
v 0.01000000 0.00000000 0.07000000
v 0.00959493 -0.00281733 0.07000000
v 0.00841254 -0.00540641 0.07000000
v 0.00654861 -0.00755750 0.07000000
v 0.00415415 -0.00909632 0.07000000
v 0.00142315 -0.00989821 0.07000000
v -0.00142315 -0.00989821 0.07000000
v -0.00415415 -0.00909632 0.07000000
v -0.00654861 -0.00755750 0.07000000
v -0.00841254 -0.00540641 0.07000000
v -0.00959493 -0.00281733 0.07000000
v -0.01000000 0.00000000 0.07000000
v -0.00959493 0.00281733 0.07000000
v -0.00841254 0.00540641 0.07000000
v -0.00654861 0.00755750 0.07000000
v -0.00415415 0.00909632 0.07000000
v -0.00142315 0.00989821 0.07000000
v 0.00142315 0.00989821 0.07000000
v 0.00415415 0.00909632 0.07000000
v 0.00654861 0.00755750 0.07000000
v 0.00841254 0.00540641 0.07000000
v 0.00959493 0.00281733 0.07000000
v 0.01000000 0.00000000 0.11400000
v 0.00959493 0.00281733 0.11400000
v 0.00841254 0.00540641 0.11400000
v 0.00654861 0.00755750 0.11400000
v 0.00415415 0.00909632 0.11400000
v 0.00142315 0.00989821 0.11400000
v -0.00142315 0.00989821 0.11400000
v -0.00415415 0.00909632 0.11400000
v -0.00654861 0.00755750 0.11400000
v -0.00841254 0.00540641 0.11400000
v -0.00959493 0.00281733 0.11400000
v -0.01000000 0.00000000 0.11400000
v -0.00959493 -0.00281733 0.11400000
v -0.00841254 -0.00540641 0.11400000
v -0.00654861 -0.00755750 0.11400000
v -0.00415415 -0.00909632 0.11400000
v -0.00142315 -0.00989821 0.11400000
v 0.00142315 -0.00989821 0.11400000
v 0.00415415 -0.00909632 0.11400000
v 0.00654861 -0.00755750 0.11400000
v 0.00841254 -0.00540641 0.11400000
v 0.00959493 -0.00281733 0.11400000
v -0.01000000 0.00000000 0.11400000
v -0.01000000 0.00000000 0.07000000
v 0.01500000 0.00000000 0.11400000
v 0.01459567 0.00345924 0.11400000
v 0.01340449 0.00673199 0.11400000
v 0.01149067 0.00964181 0.11400000
v 0.00895738 0.01203185 0.11400000
v 0.00594120 0.01377324 0.11400000
v 0.00260472 0.01477212 0.11400000
v -0.00087217 0.01497462 0.11400000
v -0.00430205 0.01436984 0.11400000
v -0.00750000 0.01299038 0.11400000
v -0.01029362 0.01091060 0.11400000
v -0.01253232 0.00824263 0.11400000
v -0.01409539 0.00513030 0.11400000
v -0.01489858 0.00174139 0.11400000
v -0.01489858 -0.00174139 0.11400000
v -0.01409539 -0.00513030 0.11400000
v -0.01253232 -0.00824263 0.11400000
v -0.01029362 -0.01091060 0.11400000
v -0.00750000 -0.01299038 0.11400000
v -0.00430205 -0.01436984 0.11400000
v -0.00087217 -0.01497462 0.11400000
v 0.00260472 -0.01477212 0.11400000
v 0.00594120 -0.01377324 0.11400000
v 0.00895738 -0.01203185 0.11400000
v 0.01149067 -0.00964181 0.11400000
v 0.01340449 -0.00673199 0.11400000
v 0.01459567 -0.00345924 0.11400000
v 0.01400000 0.00000000 0.11500000
v 0.01359318 -0.00335042 0.11500000
v 0.01239638 -0.00650612 0.11500000
v 0.01047915 -0.00928372 0.11500000
v 0.00795291 -0.01152177 0.11500000
v 0.00496447 -0.01309023 0.11500000
v 0.00168751 -0.01389792 0.11500000
v -0.00168751 -0.01389792 0.11500000
v -0.00496447 -0.01309023 0.11500000
v -0.00795291 -0.01152177 0.11500000
v -0.01047915 -0.00928372 0.11500000
v -0.01239638 -0.00650612 0.11500000
v -0.01359318 -0.00335042 0.11500000
v -0.01400000 0.00000000 0.11500000
v -0.01359318 0.00335042 0.11500000
v -0.01239638 0.00650612 0.11500000
v -0.01047915 0.00928372 0.11500000
v -0.00795291 0.01152177 0.11500000
v -0.00496447 0.01309023 0.11500000
v -0.00168751 0.01389792 0.11500000
v 0.00168751 0.01389792 0.11500000
v 0.00496447 0.01309023 0.11500000
v 0.00795291 0.01152177 0.11500000
v 0.01047915 0.00928372 0.11500000
v 0.01239638 0.00650612 0.11500000
v 0.01359318 0.00335042 0.11500000
v -0.01400000 0.00000000 0.11500000
v -0.01495106 0.00000000 0.11430902
v -0.01480902 0.00000000 0.11458778
v -0.01480902 0.00000000 0.11458778
v -0.01458779 0.00000000 0.11480902
v -0.01458779 0.00000000 0.11480902
v -0.01430902 0.00000000 0.11495106
v -0.01430902 0.00000000 0.11495106
v 0.01484996 0.00173571 0.11430902
v 0.01470888 0.00171922 0.11458778
v 0.01448915 0.00169354 0.11480902
v 0.01421226 0.00166118 0.11495106
v 0.01421226 -0.00166118 0.11495106
v 0.01448915 -0.00169354 0.11480902
v 0.01470888 -0.00171922 0.11458778
v 0.01484996 -0.00173571 0.11430902
v 0.01404940 0.00511356 0.11430902
v 0.01391592 0.00506498 0.11458778
v 0.01370803 0.00498932 0.11480902
v 0.01344608 0.00489397 0.11495106
v 0.01249143 0.00821574 0.11430902
v 0.01237275 0.00813769 0.11458778
v 0.01218792 0.00801612 0.11480902
v 0.01195501 0.00786293 0.11495106
v 0.01026004 0.01087500 0.11430902
v 0.01016256 0.01077169 0.11458778
v 0.01001075 0.01061077 0.11480902
v 0.00981944 0.01040800 0.11495106
v 0.00747553 0.01294799 0.11430902
v 0.00740451 0.01282498 0.11458778
v 0.00729389 0.01263339 0.11480902
v 0.00715451 0.01239197 0.11495106
v 0.00428801 0.01432296 0.11430902
v 0.00424727 0.01418688 0.11458778
v 0.00418382 0.01397495 0.11480902
v 0.00410387 0.01370789 0.11495106
v 0.00086933 0.01492576 0.11430902
v 0.00086107 0.01478396 0.11458778
v 0.00084820 0.01456311 0.11480902
v 0.00083200 0.01428481 0.11495106
v -0.00259622 0.01472392 0.11430902
v -0.00257156 0.01458403 0.11458778
v -0.00253314 0.01436616 0.11480902
v -0.00248473 0.01409163 0.11495106
v -0.00592181 0.01372830 0.11430902
v -0.00586555 0.01359788 0.11458778
v -0.00577793 0.01339474 0.11480902
v -0.00566751 0.01313877 0.11495106
v -0.00892815 0.01199259 0.11430902
v -0.00884333 0.01187866 0.11458778
v -0.00871122 0.01170120 0.11480902
v -0.00854475 0.01147759 0.11495106
v -0.01145317 0.00961035 0.11430902
v -0.01134436 0.00951905 0.11458778
v -0.01117489 0.00937685 0.11480902
v -0.01096134 0.00919766 0.11495106
v -0.01336075 0.00671002 0.11430902
v -0.01323382 0.00664627 0.11458778
v -0.01303612 0.00654699 0.11480902
v -0.01278700 0.00642187 0.11495106
v -0.01454805 0.00344795 0.11430902
v -0.01440984 0.00341519 0.11458778
v -0.01419457 0.00336417 0.11480902
v -0.01392332 0.00329989 0.11495106
v -0.01454805 -0.00344795 0.11430902
v -0.01440984 -0.00341519 0.11458778
v -0.01419457 -0.00336417 0.11480902
v -0.01392332 -0.00329989 0.11495106
v -0.01495106 0.00000000 0.11430902
v -0.01336075 -0.00671002 0.11430902
v -0.01323382 -0.00664627 0.11458778
v -0.01303612 -0.00654699 0.11480902
v -0.01278700 -0.00642187 0.11495106
v -0.01145317 -0.00961035 0.11430902
v -0.01134436 -0.00951905 0.11458778
v -0.01117489 -0.00937685 0.11480902
v -0.01096134 -0.00919766 0.11495106
v -0.00892815 -0.01199259 0.11430902
v -0.00884333 -0.01187866 0.11458778
v -0.00871122 -0.01170120 0.11480902
v -0.00854475 -0.01147759 0.11495106
v -0.00592181 -0.01372830 0.11430902
v -0.00586555 -0.01359788 0.11458778
v -0.00577793 -0.01339474 0.11480902
v -0.00566751 -0.01313877 0.11495106
v -0.00259622 -0.01472392 0.11430902
v -0.00257156 -0.01458403 0.11458778
v -0.00253314 -0.01436616 0.11480902
v -0.00248473 -0.01409163 0.11495106
v 0.00086933 -0.01492576 0.11430902
v 0.00086107 -0.01478396 0.11458778
v 0.00084820 -0.01456311 0.11480902
v 0.00083200 -0.01428481 0.11495106
v 0.00428801 -0.01432296 0.11430902
v 0.00424727 -0.01418688 0.11458778
v 0.00418382 -0.01397495 0.11480902
v 0.00410387 -0.01370789 0.11495106
v 0.00747553 -0.01294799 0.11430902
v 0.00740451 -0.01282498 0.11458778
v 0.00729389 -0.01263339 0.11480902
v 0.00715451 -0.01239197 0.11495106
v 0.01026004 -0.01087500 0.11430902
v 0.01016256 -0.01077169 0.11458778
v 0.01001075 -0.01061077 0.11480902
v 0.00981944 -0.01040800 0.11495106
v 0.01249143 -0.00821574 0.11430902
v 0.01237275 -0.00813769 0.11458778
v 0.01218792 -0.00801612 0.11480902
v 0.01195501 -0.00786293 0.11495106
v 0.01404940 -0.00511356 0.11430902
v 0.01391592 -0.00506498 0.11458778
v 0.01370803 -0.00498932 0.11480902
v 0.01344608 -0.00489397 0.11495106
v -0.01489858 0.00174139 0.11400000
v 0.01500000 0.00000000 0.07008728
v 0.01459567 0.00345924 0.07008728
v 0.01340449 0.00673199 0.07008728
v 0.01149067 0.00964181 0.07008728
v 0.00895738 0.01203185 0.07008728
v 0.00594120 0.01377324 0.07008728
v 0.00260472 0.01477212 0.07008728
v -0.00087217 0.01497462 0.07008728
v -0.00430205 0.01436984 0.07008728
v -0.00750000 0.01299038 0.07008728
v -0.01029362 0.01091060 0.07008728
v -0.01253232 0.00824263 0.07008728
v -0.01409539 0.00513030 0.07008728
v -0.01489858 0.00174139 0.07008728
v -0.01489858 -0.00174139 0.07008728
v -0.01409539 -0.00513030 0.07008728
v -0.01253232 -0.00824263 0.07008728
v -0.01029362 -0.01091060 0.07008728
v -0.00750000 -0.01299038 0.07008728
v -0.00430205 -0.01436984 0.07008728
v -0.00087217 -0.01497462 0.07008728
v 0.00260472 -0.01477212 0.07008728
v 0.00594120 -0.01377324 0.07008728
v 0.00895738 -0.01203185 0.07008728
v 0.01149067 -0.00964181 0.07008728
v 0.01340449 -0.00673199 0.07008728
v 0.01459567 -0.00345924 0.07008728
v 0.01500000 0.00000000 0.11400000
v 0.01459567 -0.00345924 0.11400000
v 0.01340449 -0.00673199 0.11400000
v 0.01149067 -0.00964181 0.11400000
v 0.00895738 -0.01203185 0.11400000
v 0.00594120 -0.01377324 0.11400000
v 0.00260472 -0.01477212 0.11400000
v -0.00087217 -0.01497462 0.11400000
v -0.00430205 -0.01436984 0.11400000
v -0.00750000 -0.01299038 0.11400000
v -0.01029362 -0.01091060 0.11400000
v -0.01253232 -0.00824263 0.11400000
v -0.01409539 -0.00513030 0.11400000
v -0.01489858 -0.00174139 0.11400000
v -0.01489858 0.00174139 0.11400000
v -0.01409539 0.00513030 0.11400000
v -0.01253232 0.00824263 0.11400000
v -0.01029362 0.01091060 0.11400000
v -0.00750000 0.01299038 0.11400000
v -0.00430205 0.01436984 0.11400000
v -0.00087217 0.01497462 0.11400000
v 0.00260472 0.01477212 0.11400000
v 0.00594120 0.01377324 0.11400000
v 0.00895738 0.01203185 0.11400000
v 0.01149067 0.00964181 0.11400000
v 0.01340449 0.00673199 0.11400000
v 0.01459567 0.00345924 0.11400000
v -0.01489858 -0.00174139 0.07008728
v -0.01489858 -0.00174139 0.11400000
v -0.03000000 0.00000000 0.00716739
v -0.02959084 -0.00493784 0.00716739
v -0.02837452 -0.00974098 0.00716739
v -0.02638421 -0.01427842 0.00716739
v -0.02367422 -0.01842638 0.00716739
v -0.02031845 -0.02207172 0.00716739
v -0.01640844 -0.02511499 0.00716739
v -0.01205086 -0.02747320 0.00716739
v -0.00736456 -0.02908201 0.00716739
v -0.00247738 -0.02989753 0.00716739
v 0.00247738 -0.02989753 0.00716739
v 0.00736456 -0.02908201 0.00716739
v 0.01205086 -0.02747320 0.00716739
v 0.01640844 -0.02511499 0.00716739
v 0.02031845 -0.02207172 0.00716739
v 0.02367422 -0.01842638 0.00716739
v 0.02638421 -0.01427842 0.00716739
v 0.02837452 -0.00974098 0.00716739
v 0.02959084 -0.00493784 0.00716739
v 0.03000000 0.00000000 0.00716739
v 0.02959084 0.00493784 0.00716739
v 0.02837452 0.00974098 0.00716739
v 0.02638421 0.01427842 0.00716739
v 0.02367422 0.01842638 0.00716739
v 0.02031845 0.02207172 0.00716739
v 0.01640844 0.02511499 0.00716739
v 0.01205086 0.02747320 0.00716739
v 0.00736456 0.02908201 0.00716739
v 0.00247738 0.02989753 0.00716739
v -0.00247738 0.02989753 0.00716739
v -0.00736456 0.02908201 0.00716739
v -0.01205086 0.02747320 0.00716739
v -0.01640844 0.02511499 0.00716739
v -0.02031845 0.02207172 0.00716739
v -0.02367422 0.01842638 0.00716739
v -0.02638421 0.01427842 0.00716739
v -0.02837452 0.00974098 0.00716739
v -0.02959084 0.00493784 0.00716739
v -0.02431349 0.00000000 0.03375516
v -0.02389951 0.00446759 0.03375516
v -0.02267166 0.00878305 0.03375516
v -0.02067175 0.01279940 0.03375516
v -0.01796789 0.01637989 0.03375516
v -0.01465215 0.01940259 0.03375516
v -0.01083746 0.02176455 0.03375516
v -0.00665370 0.02338534 0.03375516
v -0.00224337 0.02420977 0.03375516
v 0.00224337 0.02420977 0.03375516
v 0.00665370 0.02338534 0.03375516
v 0.01083746 0.02176455 0.03375516
v 0.01465215 0.01940259 0.03375516
v 0.01796789 0.01637989 0.03375516
v 0.02067175 0.01279940 0.03375516
v 0.02267166 0.00878305 0.03375516
v 0.02389951 0.00446759 0.03375516
v 0.02431349 0.00000000 0.03375516
v 0.02389951 -0.00446759 0.03375516
v 0.02267166 -0.00878305 0.03375516
v 0.02067175 -0.01279940 0.03375516
v 0.01796789 -0.01637989 0.03375516
v 0.01465215 -0.01940259 0.03375516
v 0.01083746 -0.02176455 0.03375516
v 0.00665370 -0.02338534 0.03375516
v 0.00224337 -0.02420977 0.03375516
v -0.00224337 -0.02420977 0.03375516
v -0.00665370 -0.02338534 0.03375516
v -0.01083746 -0.02176455 0.03375516
v -0.01465215 -0.01940259 0.03375516
v -0.01796789 -0.01637989 0.03375516
v -0.02067175 -0.01279940 0.03375516
v -0.02267166 -0.00878305 0.03375516
v -0.02389951 -0.00446759 0.03375516
v -0.03000000 0.00000000 0.00716739
v -0.02431349 0.00000000 0.03375516
v -0.02963962 0.00000000 0.01400256
v -0.02963962 0.00000000 0.01400256
v -0.02856248 0.00000000 0.02076193
v -0.02856248 0.00000000 0.02076193
v -0.02678051 0.00000000 0.02737056
v -0.02678051 0.00000000 0.02737056
v 0.00221152 -0.02668905 0.02737056
v -0.00221152 0.02668905 0.02737056
v -0.02923537 -0.00487852 0.01400256
v -0.02817292 -0.00470123 0.02076193
v -0.02641526 -0.00440793 0.02737056
v -0.02803366 -0.00962397 0.01400256
v -0.02701488 -0.00927422 0.02076193
v -0.02532947 -0.00869562 0.02737056
v -0.02606727 -0.01410690 0.01400256
v -0.02511995 -0.01359424 0.02076193
v -0.02355276 -0.01274612 0.02737056
v -0.02338983 -0.01820503 0.01400256
v -0.02253981 -0.01754344 0.02076193
v -0.02113359 -0.01644893 0.02737056
v -0.02007437 -0.02180658 0.01400256
v -0.01934484 -0.02101410 0.02076193
v -0.01813795 -0.01970307 0.02737056
v -0.01621134 -0.02481330 0.01400256
v -0.01562219 -0.02391155 0.02076193
v -0.01464755 -0.02241975 0.02737056
v -0.01190610 -0.02714317 0.01400256
v -0.01147342 -0.02615675 0.02076193
v -0.01075761 -0.02452488 0.02737056
v -0.00727610 -0.02873266 0.01400256
v -0.00701167 -0.02768847 0.02076193
v -0.00657423 -0.02596104 0.02737056
v -0.00244762 -0.02953839 0.01400256
v -0.00235867 -0.02846492 0.02076193
v -0.00221152 -0.02668905 0.02737056
v 0.00244762 -0.02953839 0.01400256
v 0.00235867 -0.02846492 0.02076193
v 0.00727610 -0.02873266 0.01400256
v 0.00701167 -0.02768847 0.02076193
v 0.00657423 -0.02596104 0.02737056
v 0.01190610 -0.02714317 0.01400256
v 0.01147342 -0.02615675 0.02076193
v 0.01075761 -0.02452488 0.02737056
v 0.01621134 -0.02481330 0.01400256
v 0.01562219 -0.02391155 0.02076193
v 0.01464755 -0.02241975 0.02737056
v 0.02007437 -0.02180658 0.01400256
v 0.01934484 -0.02101410 0.02076193
v 0.01813795 -0.01970307 0.02737056
v 0.02338983 -0.01820503 0.01400256
v 0.02253981 -0.01754344 0.02076193
v 0.02113359 -0.01644893 0.02737056
v 0.02606727 -0.01410690 0.01400256
v 0.02511995 -0.01359424 0.02076193
v 0.02355276 -0.01274612 0.02737056
v 0.02803366 -0.00962397 0.01400256
v 0.02701488 -0.00927422 0.02076193
v 0.02532947 -0.00869562 0.02737056
v 0.02923537 -0.00487852 0.01400256
v 0.02817292 -0.00470123 0.02076193
v 0.02641526 -0.00440793 0.02737056
v 0.02963962 0.00000000 0.01400256
v 0.02856248 0.00000000 0.02076193
v 0.02678051 0.00000000 0.02737056
v 0.02923537 0.00487852 0.01400256
v 0.02817292 0.00470123 0.02076193
v 0.02641526 0.00440793 0.02737056
v 0.02803366 0.00962397 0.01400256
v 0.02701488 0.00927422 0.02076193
v 0.02532947 0.00869562 0.02737056
v 0.02606727 0.01410690 0.01400256
v 0.02511995 0.01359424 0.02076193
v 0.02355276 0.01274612 0.02737056
v 0.02338983 0.01820503 0.01400256
v 0.02253981 0.01754344 0.02076193
v 0.02113359 0.01644893 0.02737056
v 0.02007437 0.02180658 0.01400256
v 0.01934484 0.02101410 0.02076193
v 0.01813795 0.01970307 0.02737056
v 0.01621134 0.02481330 0.01400256
v 0.01562219 0.02391155 0.02076193
v 0.01464755 0.02241975 0.02737056
v 0.01190610 0.02714317 0.01400256
v 0.01147342 0.02615675 0.02076193
v 0.01075761 0.02452488 0.02737056
v 0.00727610 0.02873266 0.01400256
v 0.00701167 0.02768847 0.02076193
v 0.00657423 0.02596104 0.02737056
v 0.00244762 0.02953839 0.01400256
v 0.00235867 0.02846492 0.02076193
v 0.00221152 0.02668905 0.02737056
v -0.00244762 0.02953839 0.01400256
v -0.00235867 0.02846492 0.02076193
v -0.00727610 0.02873266 0.01400256
v -0.00701167 0.02768847 0.02076193
v -0.00657423 0.02596104 0.02737056
v -0.01190610 0.02714317 0.01400256
v -0.01147342 0.02615675 0.02076193
v -0.01075761 0.02452488 0.02737056
v -0.01621134 0.02481330 0.01400256
v -0.01562219 0.02391155 0.02076193
v -0.01464755 0.02241975 0.02737056
v -0.02007437 0.02180658 0.01400256
v -0.01934484 0.02101410 0.02076193
v -0.01813795 0.01970307 0.02737056
v -0.02338983 0.01820503 0.01400256
v -0.02253981 0.01754344 0.02076193
v -0.02113359 0.01644893 0.02737056
v -0.02606727 0.01410690 0.01400256
v -0.02511995 0.01359424 0.02076193
v -0.02355276 0.01274612 0.02737056
v -0.02803366 0.00962397 0.01400256
v -0.02701488 0.00927422 0.02076193
v -0.02532947 0.00869562 0.02737056
v -0.02923537 0.00487852 0.01400256
v -0.02817292 0.00470123 0.02076193
v -0.02641526 0.00440793 0.02737056
v 0.02079208 0.00000000 0.04161093
v 0.02039257 -0.00405633 0.04161093
v 0.01920938 -0.00795678 0.04161093
v 0.01728798 -0.01155146 0.04161093
v 0.01470222 -0.01470222 0.04161093
v 0.01155146 -0.01728798 0.04161093
v 0.00795678 -0.01920938 0.04161093
v 0.00405633 -0.02039257 0.04161093
v 0.00000000 -0.02079208 0.04161093
v -0.00405633 -0.02039257 0.04161093
v -0.00795678 -0.01920938 0.04161093
v -0.01155146 -0.01728798 0.04161093
v -0.01470222 -0.01470222 0.04161093
v -0.01728798 -0.01155146 0.04161093
v -0.01920938 -0.00795678 0.04161093
v -0.02039257 -0.00405633 0.04161093
v -0.02079208 0.00000000 0.04161093
v -0.02039257 0.00405633 0.04161093
v -0.01920938 0.00795678 0.04161093
v -0.01728798 0.01155146 0.04161093
v -0.01470222 0.01470222 0.04161093
v -0.01155146 0.01728798 0.04161093
v -0.00795678 0.01920938 0.04161093
v -0.00405633 0.02039257 0.04161093
v 0.00000000 0.02079208 0.04161093
v 0.00405633 0.02039257 0.04161093
v 0.00795678 0.01920938 0.04161093
v 0.01155146 0.01728798 0.04161093
v 0.01470222 0.01470222 0.04161093
v 0.01728798 0.01155146 0.04161093
v 0.01920938 0.00795678 0.04161093
v 0.02039257 0.00405633 0.04161093
v -0.02431349 0.00000000 0.03375516
v -0.02389951 -0.00446759 0.03375516
v -0.02267166 -0.00878305 0.03375516
v -0.02067175 -0.01279940 0.03375516
v -0.01796789 -0.01637989 0.03375516
v -0.01465215 -0.01940259 0.03375516
v -0.01083746 -0.02176455 0.03375516
v -0.00665370 -0.02338534 0.03375516
v -0.00224337 -0.02420977 0.03375516
v 0.00224337 -0.02420977 0.03375516
v 0.00665370 -0.02338534 0.03375516
v 0.01083746 -0.02176455 0.03375516
v 0.01465215 -0.01940259 0.03375516
v 0.01796789 -0.01637989 0.03375516
v 0.02067175 -0.01279940 0.03375516
v 0.02267166 -0.00878305 0.03375516
v 0.02389951 -0.00446759 0.03375516
v 0.02431349 0.00000000 0.03375516
v 0.02389951 0.00446759 0.03375516
v 0.02267166 0.00878305 0.03375516
v 0.02067175 0.01279940 0.03375516
v 0.01796789 0.01637989 0.03375516
v 0.01465215 0.01940259 0.03375516
v 0.01083746 0.02176455 0.03375516
v 0.00665370 0.02338534 0.03375516
v 0.00224337 0.02420977 0.03375516
v -0.00224337 0.02420977 0.03375516
v -0.00665370 0.02338534 0.03375516
v -0.01083746 0.02176455 0.03375516
v -0.01465215 0.01940259 0.03375516
v -0.01796789 0.01637989 0.03375516
v -0.02067175 0.01279940 0.03375516
v -0.02267166 0.00878305 0.03375516
v -0.02389951 0.00446759 0.03375516
v -0.02431349 0.00000000 0.03375516
v -0.02079208 0.00000000 0.04161093
v 0.02079208 0.00000000 0.04161093
v 0.02039257 0.00405633 0.04161093
v 0.01920938 0.00795678 0.04161093
v 0.01728798 0.01155146 0.04161093
v 0.01470222 0.01470222 0.04161093
v 0.01155146 0.01728798 0.04161093
v 0.00795678 0.01920938 0.04161093
v 0.00405633 0.02039257 0.04161093
v 0.00000000 0.02079208 0.04161093
v -0.00405633 0.02039257 0.04161093
v -0.00795678 0.01920938 0.04161093
v -0.01155146 0.01728798 0.04161093
v -0.01470222 0.01470222 0.04161093
v -0.01728798 0.01155146 0.04161093
v -0.01920938 0.00795678 0.04161093
v -0.02039257 0.00405633 0.04161093
v -0.02079208 0.00000000 0.04161093
v -0.02039257 -0.00405633 0.04161093
v -0.01920938 -0.00795678 0.04161093
v -0.01728798 -0.01155146 0.04161093
v -0.01470222 -0.01470222 0.04161093
v -0.01155146 -0.01728798 0.04161093
v -0.00795678 -0.01920938 0.04161093
v -0.00405633 -0.02039257 0.04161093
v 0.00000000 -0.02079208 0.04161093
v 0.00405633 -0.02039257 0.04161093
v 0.00795678 -0.01920938 0.04161093
v 0.01155146 -0.01728798 0.04161093
v 0.01470222 -0.01470222 0.04161093
v 0.01728798 -0.01155146 0.04161093
v 0.01920938 -0.00795678 0.04161093
v 0.02039257 -0.00405633 0.04161093
v 0.01514517 0.00000000 0.06593023
v 0.01473693 -0.00349272 0.06593023
v 0.01353422 -0.00679714 0.06593023
v 0.01160187 -0.00973513 0.06593023
v 0.00904407 -0.01214829 0.06593023
v 0.00599869 -0.01390654 0.06593023
v 0.00262993 -0.01491508 0.06593023
v -0.00088061 -0.01511954 0.06593023
v -0.00434368 -0.01450891 0.06593023
v -0.00757258 -0.01311610 0.06593023
v -0.01039324 -0.01101619 0.06593023
v -0.01265360 -0.00832241 0.06593023
v -0.01423180 -0.00517995 0.06593023
v -0.01504276 -0.00175825 0.06593023
v -0.01504276 0.00175825 0.06593023
v -0.01423180 0.00517995 0.06593023
v -0.01265360 0.00832241 0.06593023
v -0.01039324 0.01101619 0.06593023
v -0.00757258 0.01311610 0.06593023
v -0.00434368 0.01450891 0.06593023
v -0.00088061 0.01511954 0.06593023
v 0.00262993 0.01491508 0.06593023
v 0.00599869 0.01390654 0.06593023
v 0.00904407 0.01214829 0.06593023
v 0.01160187 0.00973513 0.06593023
v 0.01353422 0.00679714 0.06593023
v 0.01473693 0.00349272 0.06593023
v -0.02079208 0.00000000 0.04161093
v -0.01850371 0.00000000 0.04745717
v -0.01850371 0.00000000 0.04745717
v -0.01679003 0.00000000 0.05349691
v -0.01679003 0.00000000 0.05349691
v -0.01566702 0.00000000 0.05967381
v -0.01526474 -0.00352752 0.05967381
v -0.01845072 -0.00139941 0.04745717
v -0.01407854 -0.00687389 0.05967381
v -0.01766187 -0.00551777 0.04745717
v -0.01662761 -0.00811849 0.04745717
v -0.01216934 -0.00986726 0.05967381
v -0.01437274 -0.01165383 0.04745717
v -0.00963520 -0.01235389 0.05967381
v -0.01245064 -0.01368828 0.04745717
v -0.00660624 -0.01420610 0.05967381
v -0.00904894 -0.01614014 0.04745717
v -0.00323802 -0.01532876 0.05967381
v -0.00518255 -0.01776312 0.04745717
v 0.00029648 -0.01566422 0.05967381
v -0.00244415 -0.01834158 0.04745717
v 0.00174833 -0.01842093 0.04745717
v 0.00495403 -0.01486315 0.05967381
v 0.00450665 -0.01794652 0.04745717
v 0.00817335 -0.01336607 0.05967381
v 0.00843170 -0.01647100 0.04745717
v 0.01097294 -0.01118259 0.05967381
v 0.01192374 -0.01414962 0.04745717
v 0.01320901 -0.00842483 0.05967381
v 0.01392144 -0.01218937 0.04745717
v 0.01476674 -0.00523442 0.05967381
v 0.01630849 -0.00874189 0.04745717
v 0.01744042 -0.00618217 0.04745717
v 0.01556613 -0.00177519 0.05967381
v 0.01838455 -0.00209661 0.04745717
v 0.01556613 0.00177519 0.05967381
v 0.01838455 0.00209661 0.04745717
v 0.01476674 0.00523442 0.05967381
v 0.01785802 0.00484547 0.04745717
v 0.01320901 0.00842483 0.05967381
v 0.01630849 0.00874189 0.04745717
v 0.01097294 0.01118259 0.05967381
v 0.01480344 0.01110160 0.04745717
v 0.00817335 0.01336607 0.05967381
v 0.01192374 0.01414962 0.04745717
v 0.00495403 0.01486315 0.05967381
v 0.00843170 0.01647100 0.04745717
v 0.00585102 0.01755429 0.04745717
v 0.00148030 0.01559693 0.05967381
v 0.00174833 0.01842093 0.04745717
v -0.00323802 0.01532876 0.05967381
v -0.00105000 0.01847390 0.04745717
v -0.00660624 0.01420610 0.05967381
v -0.00518255 0.01776312 0.04745717
v -0.00963520 0.01235389 0.05967381
v -0.00904894 0.01614014 0.04745717
v -0.01137975 0.01459070 0.04745717
v -0.01216934 0.00986726 0.05967381
v -0.01437274 0.01165383 0.04745717
v -0.01407854 0.00687389 0.05967381
v -0.01596600 0.00935276 0.04745717
v -0.01526474 0.00352752 0.05967381
v -0.01766187 0.00551777 0.04745717
v -0.01566702 0.00000000 0.05967381
v -0.01829204 0.00279081 0.04745717
v 0.01849046 0.00070021 0.04745717
v 0.01677801 0.00063536 0.05349691
v 0.01565580 0.00059286 0.05967381
v 0.01565580 -0.00059286 0.05967381
v 0.01677801 -0.00063536 0.05349691
v 0.01849046 -0.00070021 0.04745717
v 0.01620414 0.00439671 0.05349691
v 0.01512032 0.00410264 0.05967381
v 0.01538729 0.00294736 0.05967381
v 0.01649025 0.00315862 0.05349691
v 0.01817333 0.00348101 0.04745717
v 0.01692292 0.00748346 0.04745717
v 0.01535564 0.00679039 0.05349691
v 0.01432857 0.00633622 0.05967381
v 0.01582521 0.00560962 0.05349691
v 0.01744042 0.00618217 0.04745717
v 0.01343245 0.01007345 0.05349691
v 0.01253402 0.00939968 0.05967381
v 0.01415583 0.00902872 0.05349691
v 0.01560064 0.00995024 0.04745717
v 0.01295971 0.01320732 0.04745717
v 0.01175947 0.01198416 0.05349691
v 0.01178723 0.01032070 0.05967381
v 0.01263214 0.01106048 0.05349691
v 0.01392144 0.01218937 0.04745717
v 0.00965323 0.01578615 0.04745717
v 0.00875922 0.01432415 0.05349691
v 0.00916081 0.01270965 0.05967381
v 0.00981745 0.01362068 0.05349691
v 0.01081947 0.01501088 0.04745717
v 0.00530914 0.01592854 0.05349691
v 0.00606393 0.01444592 0.05967381
v 0.00649859 0.01548139 0.05349691
v 0.00716187 0.01706151 0.04745717
v 0.00313647 0.01823595 0.04745717
v 0.00284599 0.01654707 0.05349691
v 0.00265564 0.01544031 0.05967381
v 0.00381576 0.01519525 0.05967381
v 0.00408928 0.01628444 0.05349691
v 0.00450665 0.01794652 0.04745717
v -0.00095275 0.01676298 0.05349691
v -0.00088903 0.01564178 0.05967381
v 0.00029648 0.01566422 0.05967381
v 0.00031774 0.01678703 0.05349691
v 0.00035017 0.01850040 0.04745717
v -0.00382430 0.01810420 0.04745717
v -0.00347012 0.01642752 0.05349691
v -0.00206945 0.01552975 0.05967381
v -0.00221779 0.01664291 0.05349691
v -0.00244415 0.01834158 0.04745717
v -0.00780237 0.01677827 0.04745717
v -0.00707977 0.01522439 0.05349691
v -0.00551293 0.01466504 0.05967381
v -0.00590809 0.01571622 0.05349691
v -0.00651111 0.01732030 0.04745717
v -0.01032584 0.01323942 0.05349691
v -0.00867329 0.01304721 0.05967381
v -0.00929499 0.01398243 0.05349691
v -0.01024369 0.01540955 0.04745717
v -0.01345021 0.01270745 0.04745717
v -0.01220455 0.01153058 0.05349691
v -0.01138824 0.01075935 0.05967381
v -0.01054191 0.01158981 0.05967381
v -0.01129755 0.01242057 0.05349691
v -0.01245064 0.01368828 0.04745717
v -0.01448735 0.00848658 0.05349691
v -0.01351835 0.00791895 0.05967381
v -0.01288074 0.00891865 0.05967381
v -0.01380403 0.00955793 0.05349691
v -0.01521294 0.01053347 0.04745717
v -0.01719398 0.00683771 0.04745717
v -0.01560160 0.00620445 0.05349691
v -0.01455808 0.00578946 0.05967381
v -0.01508768 0.00736661 0.05349691
v -0.01662761 0.00811849 0.04745717
v -0.01659796 0.00253234 0.05349691
v -0.01548780 0.00236297 0.05967381
v -0.01635891 0.00378038 0.05349691
v -0.01802859 0.00416622 0.04745717
v -0.01674195 -0.00126981 0.05349691
v -0.01562216 -0.00118488 0.05967381
v -0.01802859 -0.00416622 0.04745717
v -0.01635891 -0.00378038 0.05349691
v -0.01548780 -0.00236297 0.05967381
v -0.01504276 -0.00175825 0.06593023
v -0.01659796 -0.00253234 0.05349691
v -0.01829204 -0.00279081 0.04745717
v -0.01508768 -0.00736661 0.05349691
v -0.01455808 -0.00578946 0.05967381
v -0.01560160 -0.00620445 0.05349691
v -0.01719398 -0.00683771 0.04745717
v -0.01521294 -0.01053347 0.04745717
v -0.01380403 -0.00955793 0.05349691
v -0.01288074 -0.00891865 0.05967381
v -0.01351835 -0.00791895 0.05967381
v -0.01448735 -0.00848658 0.05349691
v -0.01596600 -0.00935276 0.04745717
v -0.01129755 -0.01242057 0.05349691
v -0.01054191 -0.01158981 0.05967381
v -0.01138824 -0.01075935 0.05967381
v -0.01220455 -0.01153058 0.05349691
v -0.01345021 -0.01270745 0.04745717
v -0.01024369 -0.01540955 0.04745717
v -0.00929499 -0.01398243 0.05349691
v -0.00867329 -0.01304721 0.05967381
v -0.01032584 -0.01323942 0.05349691
v -0.01137975 -0.01459070 0.04745717
v -0.00651111 -0.01732030 0.04745717
v -0.00590809 -0.01571622 0.05349691
v -0.00551293 -0.01466504 0.05967381
v -0.00707977 -0.01522439 0.05349691
v -0.00780237 -0.01677827 0.04745717
v -0.00221779 -0.01664291 0.05349691
v -0.00206945 -0.01552975 0.05967381
v -0.00347012 -0.01642752 0.05349691
v -0.00382430 -0.01810420 0.04745717
v 0.00035017 -0.01850040 0.04745717
v 0.00031774 -0.01678703 0.05349691
v 0.00265564 -0.01544031 0.05967381
v -0.00088903 -0.01564178 0.05967381
v -0.00095275 -0.01676298 0.05349691
v -0.00105000 -0.01847390 0.04745717
v 0.00408928 -0.01628444 0.05349691
v 0.00381576 -0.01519525 0.05967381
v 0.00284599 -0.01654707 0.05349691
v 0.00313647 -0.01823595 0.04745717
v 0.00716187 -0.01706151 0.04745717
v 0.00649859 -0.01548139 0.05349691
v 0.00606393 -0.01444592 0.05967381
v 0.00530914 -0.01592854 0.05349691
v 0.00585102 -0.01755429 0.04745717
v 0.01081947 -0.01501088 0.04745717
v 0.00981745 -0.01362068 0.05349691
v 0.00916081 -0.01270965 0.05967381
v 0.00875922 -0.01432415 0.05349691
v 0.00965323 -0.01578615 0.04745717
v 0.01263214 -0.01106048 0.05349691
v 0.01178723 -0.01032070 0.05967381
v 0.01175947 -0.01198416 0.05349691
v 0.01295971 -0.01320732 0.04745717
v 0.01560064 -0.00995024 0.04745717
v 0.01415583 -0.00902872 0.05349691
v 0.01253402 -0.00939968 0.05967381
v 0.01343245 -0.01007345 0.05349691
v 0.01480344 -0.01110160 0.04745717
v 0.01582521 -0.00560962 0.05349691
v 0.01432857 -0.00633622 0.05967381
v 0.01535564 -0.00679039 0.05349691
v 0.01692292 -0.00748346 0.04745717
v 0.01817333 -0.00348101 0.04745717
v 0.01649025 -0.00315862 0.05349691
v 0.01538729 -0.00294736 0.05967381
v 0.01512032 -0.00410264 0.05967381
v 0.01620414 -0.00439671 0.05349691
v 0.01785802 -0.00484547 0.04745717
v 0.01380834 -0.00740172 0.05967381
v 0.01479811 -0.00793228 0.05349691
v 0.01081945 -0.01283919 0.05349691
v 0.01009578 -0.01198043 0.05967381
v 0.00765081 -0.01494558 0.05349691
v 0.00713909 -0.01394594 0.05967381
v -0.00470257 -0.01611803 0.05349691
v -0.00438804 -0.01503997 0.05967381
v -0.00821090 -0.01464535 0.05349691
v -0.00766171 -0.01366579 0.05967381
v -0.01495424 -0.00467187 0.05967381
v -0.01602615 -0.00500675 0.05349691
v -0.01845072 0.00139941 0.04745717
v -0.01674195 0.00126981 0.05349691
v -0.01562216 0.00118488 0.05967381
v -0.01602615 0.00500675 0.05349691
v -0.01495424 0.00467187 0.05967381
v -0.00766171 0.01366579 0.05967381
v -0.00821090 0.01464535 0.05349691
v -0.00438804 0.01503997 0.05967381
v -0.00470257 0.01611803 0.05349691
v 0.00713909 0.01394594 0.05967381
v 0.00765081 0.01494558 0.05349691
v 0.01009578 0.01198043 0.05967381
v 0.01081945 0.01283919 0.05349691
v 0.01479811 0.00793228 0.05349691
v 0.01380834 0.00740172 0.05967381
v -0.01304164 0.01057454 0.05349691
v 0.00158641 0.01671492 0.05349691
v 0.01668190 0.00190244 0.05349691
v 0.01668190 -0.00190244 0.05349691
v 0.00148030 -0.01559693 0.05967381
v 0.00158641 -0.01671492 0.05349691
v -0.01304164 -0.01057454 0.05349691
v -0.01562216 -0.00118488 0.05967381
v 0.01500000 0.00000000 0.07008728
v 0.01459567 -0.00345924 0.07008728
v 0.01340449 -0.00673199 0.07008728
v 0.01149067 -0.00964181 0.07008728
v 0.00895738 -0.01203185 0.07008728
v 0.00594120 -0.01377324 0.07008728
v 0.00260472 -0.01477212 0.07008728
v -0.00087217 -0.01497462 0.07008728
v -0.00430205 -0.01436984 0.07008728
v -0.00750000 -0.01299038 0.07008728
v -0.01029362 -0.01091060 0.07008728
v -0.01253232 -0.00824263 0.07008728
v -0.01409539 -0.00513030 0.07008728
v -0.01489858 -0.00174139 0.07008728
v -0.01489858 0.00174139 0.07008728
v -0.01409539 0.00513030 0.07008728
v -0.01253232 0.00824263 0.07008728
v -0.01029362 0.01091060 0.07008728
v -0.00750000 0.01299038 0.07008728
v -0.00430205 0.01436984 0.07008728
v -0.00087217 0.01497462 0.07008728
v 0.00260472 0.01477212 0.07008728
v 0.00594120 0.01377324 0.07008728
v 0.00895738 0.01203185 0.07008728
v 0.01149067 0.00964181 0.07008728
v 0.01340449 0.00673199 0.07008728
v 0.01459567 0.00345924 0.07008728
v 0.01514517 0.00000000 0.06593023
v 0.01473693 0.00349272 0.06593023
v 0.01353422 0.00679714 0.06593023
v 0.01160187 0.00973513 0.06593023
v 0.00904407 0.01214829 0.06593023
v 0.00599869 0.01390654 0.06593023
v 0.00262993 0.01491508 0.06593023
v -0.00088061 0.01511954 0.06593023
v -0.00434368 0.01450891 0.06593023
v -0.00757258 0.01311610 0.06593023
v -0.01039324 0.01101619 0.06593023
v -0.01265360 0.00832241 0.06593023
v -0.01423180 0.00517995 0.06593023
v -0.01504276 0.00175825 0.06593023
v -0.01504276 -0.00175825 0.06593023
v -0.01423180 -0.00517995 0.06593023
v -0.01265360 -0.00832241 0.06593023
v -0.01039324 -0.01101619 0.06593023
v -0.00757258 -0.01311610 0.06593023
v -0.00434368 -0.01450891 0.06593023
v -0.00088061 -0.01511954 0.06593023
v 0.00262993 -0.01491508 0.06593023
v 0.00599869 -0.01390654 0.06593023
v 0.00904407 -0.01214829 0.06593023
v 0.01160187 -0.00973513 0.06593023
v 0.01353422 -0.00679714 0.06593023
v 0.01473693 -0.00349272 0.06593023
v -0.01489858 0.00174139 0.07008728
v -0.01504276 0.00175825 0.06593023
v 0.01000000 0.00000000 0.07000000
v 0.00959493 0.00281733 0.07000000
v 0.00841254 0.00540641 0.07000000
v 0.00654861 0.00755750 0.07000000
v 0.00415415 0.00909632 0.07000000
v 0.00142315 0.00989821 0.07000000
v -0.00142315 0.00989821 0.07000000
v -0.00415415 0.00909632 0.07000000
v -0.00654861 0.00755750 0.07000000
v -0.00841254 0.00540641 0.07000000
v -0.00959493 0.00281733 0.07000000
v -0.01000000 0.00000000 0.07000000
v -0.00959493 -0.00281733 0.07000000
v -0.00841254 -0.00540641 0.07000000
v -0.00654861 -0.00755750 0.07000000
v -0.00415415 -0.00909632 0.07000000
v -0.00142315 -0.00989821 0.07000000
v 0.00142315 -0.00989821 0.07000000
v 0.00415415 -0.00909632 0.07000000
v 0.00654861 -0.00755750 0.07000000
v 0.00841254 -0.00540641 0.07000000
v 0.00959493 -0.00281733 0.07000000
v 0.01062628 0.00000000 0.05206570
v 0.01023223 -0.00286694 0.05206570
v 0.00907930 -0.00552124 0.05206570
v 0.00725300 -0.00776607 0.05206570
v 0.00488878 -0.00943492 0.05206570
v 0.00216198 -0.01040402 0.05206570
v -0.00072516 -0.01060151 0.05206570
v -0.00355852 -0.01001273 0.05206570
v -0.00612797 -0.00868135 0.05206570
v -0.00824292 -0.00670612 0.05206570
v -0.00974654 -0.00423352 0.05206570
v -0.01052731 -0.00144694 0.05206570
v -0.01052731 0.00144694 0.05206570
v -0.00974654 0.00423352 0.05206570
v -0.00824292 0.00670612 0.05206570
v -0.00612797 0.00868135 0.05206570
v -0.00355852 0.01001273 0.05206570
v -0.00072516 0.01060151 0.05206570
v 0.00216198 0.01040402 0.05206570
v 0.00488878 0.00943492 0.05206570
v 0.00725300 0.00776607 0.05206570
v 0.00907930 0.00552124 0.05206570
v 0.01023223 0.00286694 0.05206570
v -0.01052731 -0.00144694 0.05206570
v -0.01000000 0.00000000 0.07000000
v 0.01062628 0.00000000 0.05206570
v 0.01023223 0.00286694 0.05206570
v 0.00907930 0.00552124 0.05206570
v 0.00725300 0.00776607 0.05206570
v 0.00488878 0.00943492 0.05206570
v 0.00216198 0.01040402 0.05206570
v -0.00072516 0.01060151 0.05206570
v -0.00355852 0.01001273 0.05206570
v -0.00612797 0.00868135 0.05206570
v -0.00824292 0.00670612 0.05206570
v -0.00974654 0.00423352 0.05206570
v -0.01052731 0.00144694 0.05206570
v -0.01052731 -0.00144694 0.05206570
v -0.00974654 -0.00423352 0.05206570
v -0.00824292 -0.00670612 0.05206570
v -0.00612797 -0.00868135 0.05206570
v -0.00355852 -0.01001273 0.05206570
v -0.00072516 -0.01060151 0.05206570
v 0.00216198 -0.01040402 0.05206570
v 0.00488878 -0.00943492 0.05206570
v 0.00725300 -0.00776607 0.05206570
v 0.00907930 -0.00552124 0.05206570
v 0.01023223 -0.00286694 0.05206570
v 0.02500000 0.00000000 0.02000000
v 0.02459824 -0.00446392 0.02000000
v 0.02340587 -0.00878437 0.02000000
v 0.02146122 -0.01282248 0.02000000
v 0.01882679 -0.01644847 0.02000000
v 0.01558725 -0.01954579 0.02000000
v 0.01184672 -0.02201489 0.02000000
v 0.00772542 -0.02377641 0.02000000
v 0.00335583 -0.02477374 0.02000000
v -0.00112162 -0.02497483 0.02000000
v -0.00556302 -0.02437320 0.02000000
v -0.00982563 -0.02298820 0.02000000
v -0.01377242 -0.02086433 0.02000000
v -0.01727657 -0.01806987 0.02000000
v -0.02022542 -0.01469463 0.02000000
v -0.02252422 -0.01084709 0.02000000
v -0.02409907 -0.00665092 0.02000000
v -0.02489936 -0.00224098 0.02000000
v -0.02489936 0.00224098 0.02000000
v -0.02409907 0.00665092 0.02000000
v -0.02252422 0.01084709 0.02000000
v -0.02022542 0.01469463 0.02000000
v -0.01727657 0.01806987 0.02000000
v -0.01377242 0.02086433 0.02000000
v -0.00982563 0.02298820 0.02000000
v -0.00556302 0.02437320 0.02000000
v -0.00112162 0.02497483 0.02000000
v 0.00335583 0.02477374 0.02000000
v 0.00772542 0.02377641 0.02000000
v 0.01184672 0.02201489 0.02000000
v 0.01558725 0.01954579 0.02000000
v 0.01882679 0.01644847 0.02000000
v 0.02146122 0.01282248 0.02000000
v 0.02340587 0.00878437 0.02000000
v 0.02459824 0.00446392 0.02000000
v -0.01052731 -0.00144694 0.05206570
v -0.02489936 -0.00224098 0.02000000
v 0.02500000 0.00000000 0.02000000
v 0.02459824 0.00446392 0.02000000
v 0.02340587 0.00878437 0.02000000
v 0.02146122 0.01282248 0.02000000
v 0.01882679 0.01644847 0.02000000
v 0.01558725 0.01954579 0.02000000
v 0.01184672 0.02201489 0.02000000
v 0.00772542 0.02377641 0.02000000
v 0.00335583 0.02477374 0.02000000
v -0.00112162 0.02497483 0.02000000
v -0.00556302 0.02437320 0.02000000
v -0.00982563 0.02298820 0.02000000
v -0.01377242 0.02086433 0.02000000
v -0.01727657 0.01806987 0.02000000
v -0.02022542 0.01469463 0.02000000
v -0.02252422 0.01084709 0.02000000
v -0.02409907 0.00665092 0.02000000
v -0.02489936 0.00224098 0.02000000
v -0.02489936 -0.00224098 0.02000000
v -0.02409907 -0.00665092 0.02000000
v -0.02252422 -0.01084709 0.02000000
v -0.02022542 -0.01469463 0.02000000
v -0.01727657 -0.01806987 0.02000000
v -0.01377242 -0.02086433 0.02000000
v -0.00982563 -0.02298820 0.02000000
v -0.00556302 -0.02437320 0.02000000
v -0.00112162 -0.02497483 0.02000000
v 0.00335583 -0.02477374 0.02000000
v 0.00772542 -0.02377641 0.02000000
v 0.01184672 -0.02201489 0.02000000
v 0.01558725 -0.01954579 0.02000000
v 0.01882679 -0.01644847 0.02000000
v 0.02146122 -0.01282248 0.02000000
v 0.02340587 -0.00878437 0.02000000
v 0.02459824 -0.00446392 0.02000000
v 0.02500000 0.00000000 -0.08000000
v 0.02459824 -0.00446392 -0.08000000
v 0.02340587 -0.00878437 -0.08000000
v 0.02146122 -0.01282248 -0.08000000
v 0.01882679 -0.01644847 -0.08000000
v 0.01558725 -0.01954579 -0.08000000
v 0.01184672 -0.02201489 -0.08000000
v 0.00772542 -0.02377641 -0.08000000
v 0.00335583 -0.02477374 -0.08000000
v -0.00112162 -0.02497483 -0.08000000
v -0.00556302 -0.02437320 -0.08000000
v -0.00982563 -0.02298820 -0.08000000
v -0.01377242 -0.02086433 -0.08000000
v -0.01727657 -0.01806987 -0.08000000
v -0.02022542 -0.01469463 -0.08000000
v -0.02252422 -0.01084709 -0.08000000
v -0.02409907 -0.00665092 -0.08000000
v -0.02489936 -0.00224098 -0.08000000
v -0.02489936 0.00224098 -0.08000000
v -0.02409907 0.00665092 -0.08000000
v -0.02252422 0.01084709 -0.08000000
v -0.02022542 0.01469463 -0.08000000
v -0.01727657 0.01806987 -0.08000000
v -0.01377242 0.02086433 -0.08000000
v -0.00982563 0.02298820 -0.08000000
v -0.00556302 0.02437320 -0.08000000
v -0.00112162 0.02497483 -0.08000000
v 0.00335583 0.02477374 -0.08000000
v 0.00772542 0.02377641 -0.08000000
v 0.01184672 0.02201489 -0.08000000
v 0.01558725 0.01954579 -0.08000000
v 0.01882679 0.01644847 -0.08000000
v 0.02146122 0.01282248 -0.08000000
v 0.02340587 0.00878437 -0.08000000
v 0.02459824 0.00446392 -0.08000000
v -0.02489936 -0.00224098 0.02000000
v -0.02489936 -0.00224098 -0.08000000
v 0.02500000 0.00000000 -0.08000000
v 0.02459824 0.00446392 -0.08000000
v 0.02340587 0.00878437 -0.08000000
v 0.02146122 0.01282248 -0.08000000
v 0.01882679 0.01644847 -0.08000000
v 0.01558725 0.01954579 -0.08000000
v 0.01184672 0.02201489 -0.08000000
v 0.00772542 0.02377641 -0.08000000
v 0.00335583 0.02477374 -0.08000000
v -0.00112162 0.02497483 -0.08000000
v -0.00556302 0.02437320 -0.08000000
v -0.00982563 0.02298820 -0.08000000
v -0.01377242 0.02086433 -0.08000000
v -0.01727657 0.01806987 -0.08000000
v -0.02022542 0.01469463 -0.08000000
v -0.02252422 0.01084709 -0.08000000
v -0.02409907 0.00665092 -0.08000000
v -0.02489936 0.00224098 -0.08000000
v -0.02489936 -0.00224098 -0.08000000
v -0.02409907 -0.00665092 -0.08000000
v -0.02252422 -0.01084709 -0.08000000
v -0.02022542 -0.01469463 -0.08000000
v -0.01727657 -0.01806987 -0.08000000
v -0.01377242 -0.02086433 -0.08000000
v -0.00982563 -0.02298820 -0.08000000
v -0.00556302 -0.02437320 -0.08000000
v -0.00112162 -0.02497483 -0.08000000
v 0.00335583 -0.02477374 -0.08000000
v 0.00772542 -0.02377641 -0.08000000
v 0.01184672 -0.02201489 -0.08000000
v 0.01558725 -0.01954579 -0.08000000
v 0.01882679 -0.01644847 -0.08000000
v 0.02146122 -0.01282248 -0.08000000
v 0.02340587 -0.00878437 -0.08000000
v 0.02459824 -0.00446392 -0.08000000
f 2 84 1
f 1 84 91
f 1 91 229
f 229 91 90
f 229 90 230
f 230 90 89
f 230 89 231
f 231 89 88
f 88 89 87
f 88 87 75
f 75 87 74
f 74 87 95
f 74 95 73
f 73 95 99
f 73 99 72
f 72 99 103
f 72 103 71
f 71 103 107
f 71 107 70
f 70 107 111
f 70 111 69
f 69 111 115
f 69 115 68
f 68 115 119
f 68 119 67
f 67 119 123
f 67 123 66
f 66 123 127
f 66 127 65
f 65 127 131
f 65 131 64
f 64 131 135
f 64 135 63
f 63 135 139
f 63 139 62
f 62 139 143
f 62 143 61
f 61 143 147
f 61 147 60
f 60 147 151
f 60 151 59
f 59 151 155
f 59 155 58
f 58 155 159
f 58 159 57
f 57 159 82
f 76 83 56
f 56 83 163
f 56 163 55
f 55 163 168
f 55 168 54
f 54 168 172
f 54 172 53
f 53 172 176
f 53 176 52
f 52 176 180
f 52 180 51
f 51 180 184
f 51 184 50
f 50 184 188
f 50 188 49
f 49 188 192
f 49 192 48
f 48 192 196
f 48 196 47
f 47 196 200
f 47 200 46
f 46 200 204
f 46 204 45
f 45 204 208
f 45 208 44
f 44 208 212
f 44 212 43
f 43 212 216
f 43 216 42
f 42 216 220
f 42 220 41
f 41 220 224
f 41 224 40
f 40 224 228
f 40 228 39
f 39 228 232
f 39 232 38
f 38 232 88
f 38 88 75
f 84 2 92
f 92 2 3
f 92 3 96
f 96 3 4
f 96 4 100
f 100 4 5
f 100 5 104
f 104 5 6
f 104 6 108
f 108 6 7
f 108 7 112
f 112 7 8
f 112 8 116
f 116 8 9
f 116 9 120
f 120 9 10
f 120 10 124
f 124 10 11
f 124 11 128
f 128 11 12
f 128 12 132
f 132 12 13
f 132 13 136
f 136 13 14
f 136 14 140
f 140 14 15
f 140 15 144
f 144 15 16
f 144 16 148
f 148 16 17
f 148 17 152
f 152 17 18
f 152 18 156
f 156 18 233
f 156 233 77
f 164 19 20
f 164 20 160
f 160 20 21
f 160 21 165
f 165 21 22
f 165 22 169
f 169 22 23
f 169 23 173
f 173 23 24
f 173 24 177
f 177 24 25
f 177 25 181
f 181 25 26
f 181 26 185
f 185 26 27
f 185 27 189
f 189 27 28
f 189 28 193
f 193 28 29
f 193 29 197
f 197 29 30
f 197 30 201
f 201 30 31
f 201 31 205
f 205 31 32
f 205 32 209
f 209 32 33
f 209 33 213
f 213 33 34
f 213 34 217
f 217 34 35
f 217 35 221
f 221 35 36
f 221 36 225
f 225 36 37
f 225 37 229
f 229 37 1
f 77 78 156
f 156 78 157
f 156 157 152
f 152 157 153
f 152 153 148
f 148 153 149
f 148 149 144
f 144 149 145
f 144 145 140
f 140 145 141
f 140 141 136
f 136 141 137
f 136 137 132
f 132 137 133
f 132 133 128
f 128 133 129
f 128 129 124
f 124 129 125
f 124 125 120
f 120 125 121
f 120 121 116
f 116 121 117
f 116 117 112
f 112 117 113
f 112 113 108
f 108 113 109
f 108 109 104
f 104 109 105
f 104 105 100
f 100 105 101
f 100 101 96
f 96 101 97
f 96 97 92
f 92 97 93
f 92 93 84
f 84 93 85
f 84 85 91
f 91 85 90
f 78 80 157
f 157 80 158
f 157 158 153
f 153 158 154
f 153 154 150
f 153 150 149
f 149 150 146
f 149 146 145
f 145 146 142
f 145 142 141
f 141 142 138
f 141 138 137
f 137 138 134
f 137 134 133
f 133 134 130
f 133 130 129
f 129 130 126
f 129 126 125
f 125 126 122
f 125 122 121
f 121 122 118
f 121 118 117
f 117 118 114
f 117 114 113
f 113 114 110
f 113 110 109
f 109 110 106
f 109 106 105
f 105 106 102
f 105 102 101
f 101 102 98
f 101 98 97
f 97 98 94
f 97 94 93
f 93 94 86
f 93 86 85
f 85 86 89
f 85 89 90
f 79 164 161
f 161 164 160
f 161 160 166
f 166 160 165
f 166 165 170
f 170 165 169
f 170 169 174
f 174 169 173
f 174 173 178
f 178 173 177
f 178 177 182
f 182 177 181
f 182 181 186
f 186 181 185
f 186 185 190
f 190 185 189
f 190 189 194
f 194 189 193
f 194 193 198
f 198 193 197
f 198 197 202
f 202 197 201
f 202 201 206
f 206 201 205
f 206 205 210
f 210 205 209
f 210 209 214
f 214 209 213
f 214 213 218
f 218 213 217
f 218 217 222
f 222 217 221
f 222 221 226
f 226 221 225
f 226 225 230
f 230 225 229
f 80 82 158
f 158 82 159
f 158 159 154
f 154 159 155
f 154 155 150
f 150 155 151
f 150 151 146
f 146 151 147
f 146 147 142
f 142 147 143
f 142 143 138
f 138 143 139
f 138 139 134
f 134 139 135
f 134 135 130
f 130 135 131
f 130 131 126
f 126 131 127
f 126 127 122
f 122 127 123
f 122 123 118
f 118 123 119
f 118 119 114
f 114 119 115
f 114 115 110
f 110 115 111
f 110 111 106
f 106 111 107
f 106 107 102
f 102 107 103
f 102 103 98
f 98 103 99
f 98 99 94
f 94 99 95
f 94 95 86
f 86 95 87
f 86 87 89
f 81 79 162
f 162 79 161
f 162 161 167
f 167 161 166
f 167 166 170
f 167 170 171
f 171 170 174
f 171 174 175
f 175 174 178
f 175 178 179
f 179 178 182
f 179 182 183
f 183 182 186
f 183 186 187
f 187 186 190
f 187 190 191
f 191 190 194
f 191 194 195
f 195 194 198
f 195 198 199
f 199 198 202
f 199 202 203
f 203 202 206
f 203 206 207
f 207 206 210
f 207 210 211
f 211 210 214
f 211 214 215
f 215 214 218
f 215 218 219
f 219 218 222
f 219 222 223
f 223 222 226
f 223 226 227
f 227 226 230
f 227 230 231
f 83 81 163
f 163 81 162
f 163 162 168
f 168 162 167
f 168 167 172
f 172 167 171
f 172 171 176
f 176 171 175
f 176 175 180
f 180 175 179
f 180 179 184
f 184 179 183
f 184 183 188
f 188 183 187
f 188 187 192
f 192 187 191
f 192 191 196
f 196 191 195
f 196 195 200
f 200 195 199
f 200 199 204
f 204 199 203
f 204 203 208
f 208 203 207
f 208 207 212
f 212 207 211
f 212 211 216
f 216 211 215
f 216 215 220
f 220 215 219
f 220 219 224
f 224 219 223
f 224 223 228
f 228 223 227
f 228 227 232
f 232 227 231
f 232 231 88
f 235 290 234
f 234 290 310
f 311 291 271
f 271 291 292
f 271 292 270
f 270 292 293
f 270 293 269
f 269 293 294
f 269 294 268
f 268 294 295
f 268 295 267
f 267 295 296
f 267 296 266
f 266 296 297
f 266 297 265
f 265 297 298
f 265 298 264
f 264 298 299
f 264 299 263
f 263 299 300
f 263 300 262
f 262 300 301
f 262 301 261
f 261 301 302
f 261 302 260
f 260 302 303
f 260 303 259
f 259 303 304
f 259 304 258
f 258 304 305
f 258 305 257
f 257 305 306
f 257 306 256
f 256 306 307
f 256 307 255
f 255 307 308
f 255 308 254
f 254 308 309
f 254 309 253
f 253 309 272
f 253 272 252
f 252 272 273
f 252 273 251
f 251 273 274
f 251 274 250
f 250 274 275
f 250 275 249
f 249 275 276
f 249 276 248
f 248 276 277
f 248 277 247
f 247 277 278
f 247 278 246
f 246 278 279
f 246 279 245
f 245 279 280
f 245 280 244
f 244 280 281
f 244 281 243
f 243 281 282
f 243 282 242
f 242 282 283
f 242 283 241
f 241 283 284
f 241 284 240
f 240 284 285
f 240 285 239
f 239 285 286
f 239 286 238
f 238 286 287
f 238 287 237
f 237 287 288
f 237 288 236
f 236 288 289
f 236 289 235
f 235 289 290
f 348 312 327
f 327 312 313
f 327 313 314
f 314 315 327
f 327 315 316
f 327 316 326
f 326 316 317
f 326 317 325
f 325 317 318
f 325 318 324
f 324 318 319
f 324 319 323
f 323 319 320
f 323 320 322
f 322 320 321
f 328 334 327
f 327 334 335
f 327 335 336
f 334 328 333
f 333 328 329
f 333 329 332
f 332 329 330
f 332 330 331
f 336 337 327
f 327 337 338
f 327 338 339
f 339 340 327
f 327 340 341
f 327 341 342
f 342 343 327
f 327 343 344
f 327 344 345
f 345 346 327
f 327 346 347
f 327 347 348
f 350 402 349
f 349 402 409
f 349 409 491
f 491 409 408
f 491 408 492
f 492 408 407
f 492 407 493
f 493 407 406
f 406 407 405
f 406 405 372
f 372 405 393
f 393 405 413
f 393 413 392
f 392 413 417
f 392 417 391
f 391 417 421
f 391 421 390
f 390 421 425
f 390 425 389
f 389 425 429
f 389 429 388
f 388 429 433
f 388 433 387
f 387 433 437
f 387 437 386
f 386 437 441
f 386 441 385
f 385 441 445
f 385 445 384
f 384 445 449
f 384 449 383
f 383 449 400
f 394 401 453
f 453 401 399
f 453 399 452
f 452 399 397
f 452 397 451
f 451 397 454
f 451 454 450
f 450 454 361
f 450 361 362
f 402 350 410
f 410 350 351
f 410 351 414
f 414 351 352
f 414 352 418
f 418 352 353
f 418 353 422
f 422 353 354
f 422 354 426
f 426 354 355
f 426 355 430
f 430 355 356
f 430 356 434
f 434 356 357
f 434 357 438
f 438 357 358
f 438 358 442
f 442 358 359
f 442 359 446
f 446 359 495
f 446 495 395
f 454 360 361
f 450 362 455
f 455 362 363
f 455 363 459
f 459 363 364
f 459 364 463
f 463 364 365
f 463 365 467
f 467 365 366
f 467 366 471
f 471 366 367
f 471 367 475
f 475 367 368
f 475 368 479
f 479 368 369
f 479 369 483
f 483 369 370
f 483 370 487
f 487 370 371
f 487 371 491
f 491 371 349
f 406 372 494
f 494 372 373
f 494 373 490
f 490 373 374
f 490 374 486
f 486 374 375
f 486 375 482
f 482 375 376
f 482 376 478
f 478 376 377
f 478 377 474
f 474 377 378
f 474 378 470
f 470 378 379
f 470 379 466
f 466 379 380
f 466 380 462
f 462 380 381
f 462 381 458
f 458 381 382
f 458 382 453
f 453 382 394
f 395 396 446
f 446 396 447
f 446 447 442
f 442 447 443
f 442 443 438
f 438 443 439
f 438 439 434
f 434 439 435
f 434 435 430
f 430 435 431
f 430 431 426
f 426 431 427
f 426 427 422
f 422 427 423
f 422 423 418
f 418 423 419
f 418 419 414
f 414 419 415
f 414 415 410
f 410 415 411
f 410 411 402
f 402 411 403
f 402 403 409
f 409 403 408
f 396 398 447
f 447 398 448
f 447 448 443
f 443 448 444
f 443 444 440
f 443 440 439
f 439 440 436
f 439 436 435
f 435 436 432
f 435 432 431
f 431 432 428
f 431 428 427
f 427 428 424
f 427 424 423
f 423 424 420
f 423 420 419
f 419 420 416
f 419 416 415
f 415 416 412
f 415 412 411
f 411 412 404
f 411 404 403
f 403 404 407
f 403 407 408
f 398 400 448
f 448 400 449
f 448 449 444
f 444 449 445
f 444 445 440
f 440 445 441
f 440 441 436
f 436 441 437
f 436 437 432
f 432 437 433
f 432 433 428
f 428 433 429
f 428 429 424
f 424 429 425
f 424 425 420
f 420 425 421
f 420 421 416
f 416 421 417
f 416 417 412
f 412 417 413
f 412 413 404
f 404 413 405
f 404 405 407
f 493 406 494
f 451 450 456
f 456 450 455
f 456 455 460
f 460 455 459
f 460 459 464
f 464 459 463
f 464 463 468
f 468 463 467
f 468 467 472
f 472 467 471
f 472 471 476
f 476 471 475
f 476 475 480
f 480 475 479
f 480 479 484
f 484 479 483
f 484 483 488
f 488 483 487
f 488 487 492
f 492 487 491
f 458 453 452
f 452 451 457
f 457 451 456
f 457 456 460
f 457 460 461
f 461 460 464
f 461 464 465
f 465 464 468
f 465 468 469
f 469 468 472
f 469 472 473
f 473 472 476
f 473 476 477
f 477 476 480
f 477 480 481
f 481 480 484
f 481 484 485
f 485 484 488
f 485 488 489
f 489 488 492
f 489 492 493
f 462 458 457
f 457 458 452
f 466 462 461
f 461 462 457
f 470 466 465
f 465 466 461
f 474 470 469
f 469 470 465
f 478 474 473
f 473 474 469
f 482 478 477
f 477 478 473
f 486 482 481
f 481 482 477
f 490 486 485
f 485 486 481
f 494 490 489
f 489 490 485
f 493 494 489
f 521 496 522
f 522 496 497
f 522 497 544
f 544 497 498
f 544 498 543
f 543 498 499
f 543 499 542
f 542 499 500
f 542 500 541
f 541 500 501
f 541 501 540
f 540 501 502
f 540 502 539
f 539 502 503
f 539 503 538
f 538 503 504
f 538 504 537
f 537 504 505
f 537 505 506
f 537 506 536
f 536 506 507
f 536 507 535
f 535 507 508
f 535 508 534
f 534 508 509
f 534 509 533
f 533 509 510
f 533 510 532
f 532 510 511
f 532 511 531
f 531 511 512
f 531 512 530
f 530 512 513
f 530 513 514
f 530 514 529
f 529 514 515
f 529 515 528
f 528 515 516
f 528 516 527
f 527 516 517
f 527 517 526
f 526 517 518
f 526 518 525
f 525 518 519
f 525 519 524
f 524 519 520
f 524 520 523
f 523 520 521
f 523 521 522
f 546 588 545
f 545 588 567
f 545 567 566
f 566 567 568
f 566 568 565
f 565 568 569
f 565 569 564
f 564 569 570
f 564 570 563
f 563 570 571
f 563 571 562
f 562 571 572
f 562 572 561
f 561 572 573
f 561 573 560
f 560 573 574
f 560 574 559
f 559 574 575
f 559 575 558
f 558 575 576
f 558 576 557
f 557 576 577
f 557 577 556
f 556 577 589
f 590 578 555
f 555 578 579
f 555 579 554
f 554 579 580
f 554 580 553
f 553 580 581
f 553 581 552
f 552 581 582
f 552 582 551
f 551 582 583
f 551 583 550
f 550 583 584
f 550 584 549
f 549 584 585
f 549 585 548
f 548 585 586
f 548 586 547
f 547 586 587
f 547 587 546
f 546 587 588
f 592 652 591
f 591 652 659
f 591 659 617
f 617 659 753
f 617 753 616
f 616 753 749
f 616 749 615
f 615 749 745
f 615 745 614
f 614 745 741
f 614 741 613
f 613 741 737
f 613 737 612
f 612 737 733
f 612 733 611
f 611 733 729
f 611 729 610
f 610 729 725
f 610 725 609
f 609 725 721
f 609 721 608
f 608 721 717
f 608 717 607
f 607 717 713
f 607 713 606
f 606 713 708
f 606 708 605
f 605 708 712
f 605 712 604
f 757 645 704
f 757 704 603
f 603 704 700
f 603 700 602
f 602 700 696
f 602 696 601
f 601 696 692
f 601 692 600
f 600 692 688
f 600 688 599
f 599 688 684
f 599 684 598
f 598 684 680
f 598 680 597
f 597 680 676
f 597 676 596
f 596 676 672
f 596 672 595
f 595 672 668
f 595 668 594
f 594 668 664
f 594 664 593
f 593 664 660
f 593 660 592
f 592 660 652
f 619 656 618
f 618 656 655
f 618 655 643
f 643 655 663
f 643 663 642
f 642 663 667
f 642 667 641
f 641 667 671
f 641 671 640
f 640 671 675
f 640 675 639
f 639 675 679
f 639 679 638
f 638 679 683
f 638 683 637
f 637 683 687
f 637 687 636
f 636 687 691
f 636 691 635
f 635 691 695
f 635 695 634
f 634 695 699
f 634 699 633
f 633 699 703
f 633 703 632
f 632 703 707
f 632 707 631
f 631 707 650
f 644 651 711
f 711 651 649
f 711 649 710
f 710 649 647
f 710 647 709
f 709 647 712
f 709 712 708
f 656 619 756
f 756 619 620
f 756 620 752
f 752 620 621
f 752 621 748
f 748 621 622
f 748 622 744
f 744 622 623
f 744 623 740
f 740 623 624
f 740 624 736
f 736 624 625
f 736 625 732
f 732 625 626
f 732 626 728
f 728 626 627
f 728 627 724
f 724 627 628
f 724 628 720
f 720 628 629
f 720 629 716
f 716 629 630
f 716 630 711
f 711 630 644
f 645 646 704
f 704 646 705
f 704 705 700
f 700 705 701
f 700 701 696
f 696 701 697
f 696 697 692
f 692 697 693
f 692 693 688
f 688 693 689
f 688 689 684
f 684 689 685
f 684 685 680
f 680 685 681
f 680 681 676
f 676 681 677
f 676 677 672
f 672 677 673
f 672 673 668
f 668 673 669
f 668 669 664
f 664 669 665
f 664 665 660
f 660 665 661
f 660 661 652
f 652 661 653
f 652 653 659
f 659 653 658
f 659 658 753
f 753 658 754
f 753 754 749
f 749 754 750
f 749 750 745
f 745 750 746
f 745 746 741
f 741 746 742
f 741 742 737
f 737 742 738
f 737 738 733
f 733 738 734
f 733 734 729
f 729 734 730
f 729 730 725
f 725 730 726
f 725 726 721
f 721 726 722
f 721 722 717
f 717 722 718
f 717 718 713
f 713 718 714
f 713 714 708
f 708 714 709
f 646 648 705
f 705 648 706
f 705 706 701
f 701 706 702
f 701 702 698
f 701 698 697
f 697 698 694
f 697 694 693
f 693 694 690
f 693 690 689
f 689 690 686
f 689 686 685
f 685 686 682
f 685 682 681
f 681 682 678
f 681 678 677
f 677 678 674
f 677 674 673
f 673 674 670
f 673 670 669
f 669 670 666
f 669 666 665
f 665 666 662
f 665 662 661
f 661 662 654
f 661 654 653
f 653 654 657
f 653 657 658
f 658 657 755
f 658 755 754
f 754 755 751
f 754 751 750
f 750 751 747
f 750 747 746
f 746 747 743
f 746 743 742
f 742 743 739
f 742 739 738
f 738 739 735
f 738 735 734
f 734 735 731
f 734 731 730
f 730 731 727
f 730 727 726
f 726 727 723
f 726 723 722
f 722 723 719
f 722 719 718
f 718 719 715
f 718 715 714
f 714 715 709
f 709 715 710
f 648 650 706
f 706 650 707
f 706 707 702
f 702 707 703
f 702 703 698
f 698 703 699
f 698 699 694
f 694 699 695
f 694 695 690
f 690 695 691
f 690 691 686
f 686 691 687
f 686 687 682
f 682 687 683
f 682 683 678
f 678 683 679
f 678 679 674
f 674 679 675
f 674 675 670
f 670 675 671
f 670 671 666
f 666 671 667
f 666 667 662
f 662 667 663
f 662 663 654
f 654 663 655
f 654 655 657
f 657 655 656
f 657 656 755
f 755 656 756
f 755 756 751
f 751 756 752
f 751 752 747
f 747 752 748
f 747 748 743
f 743 748 744
f 743 744 739
f 739 744 740
f 739 740 735
f 735 740 736
f 735 736 731
f 731 736 732
f 731 732 727
f 727 732 728
f 727 728 723
f 723 728 724
f 723 724 719
f 719 724 720
f 719 720 715
f 715 720 716
f 715 716 710
f 710 716 711
f 759 785 758
f 758 785 786
f 758 786 784
f 784 786 787
f 784 787 783
f 783 787 788
f 783 788 782
f 782 788 789
f 782 789 781
f 781 789 790
f 781 790 780
f 780 790 791
f 780 791 779
f 779 791 792
f 779 792 778
f 778 792 793
f 778 793 777
f 777 793 794
f 777 794 776
f 776 794 795
f 776 795 775
f 775 795 796
f 775 796 774
f 774 796 797
f 774 797 773
f 773 797 813
f 773 813 772
f 812 798 799
f 812 799 771
f 771 799 800
f 771 800 770
f 770 800 801
f 770 801 769
f 769 801 802
f 769 802 768
f 768 802 803
f 768 803 767
f 767 803 804
f 767 804 766
f 766 804 805
f 766 805 765
f 765 805 806
f 765 806 764
f 764 806 807
f 764 807 763
f 763 807 808
f 763 808 762
f 762 808 809
f 762 809 761
f 761 809 810
f 761 810 760
f 760 810 811
f 760 811 759
f 759 811 785
f 815 896 814
f 814 896 889
f 886 888 851
f 851 888 1002
f 851 1002 850
f 850 1002 999
f 850 999 849
f 849 999 996
f 849 996 848
f 848 996 993
f 848 993 847
f 847 993 990
f 847 990 846
f 846 990 987
f 846 987 845
f 845 987 984
f 845 984 844
f 844 984 981
f 844 981 843
f 843 981 979
f 843 979 842
f 842 979 976
f 842 976 841
f 841 976 973
f 841 973 840
f 840 973 970
f 840 970 839
f 839 970 967
f 839 967 838
f 838 967 964
f 838 964 837
f 837 964 961
f 837 961 836
f 836 961 958
f 836 958 835
f 835 958 955
f 835 955 834
f 834 955 952
f 834 952 833
f 833 952 949
f 833 949 832
f 832 949 946
f 832 946 831
f 831 946 943
f 831 943 830
f 830 943 940
f 830 940 829
f 829 940 937
f 829 937 828
f 828 937 934
f 828 934 827
f 827 934 931
f 827 931 826
f 826 931 928
f 826 928 825
f 825 928 925
f 825 925 824
f 824 925 923
f 824 923 823
f 823 923 920
f 823 920 822
f 822 920 917
f 822 917 821
f 821 917 914
f 821 914 820
f 820 914 911
f 820 911 819
f 819 911 908
f 819 908 818
f 818 908 905
f 818 905 817
f 817 905 902
f 817 902 816
f 816 902 899
f 816 899 815
f 815 899 896
f 853 1004 852
f 852 1004 892
f 887 893 898
f 898 893 891
f 898 891 897
f 897 891 889
f 897 889 896
f 1004 853 1001
f 1001 853 854
f 1001 854 998
f 998 854 855
f 998 855 995
f 995 855 856
f 995 856 992
f 992 856 857
f 992 857 989
f 989 857 858
f 989 858 986
f 986 858 859
f 986 859 983
f 983 859 860
f 983 860 895
f 895 860 861
f 895 861 978
f 978 861 975
f 978 975 974
f 974 975 971
f 974 971 970
f 970 971 967
f 861 862 975
f 975 862 972
f 975 972 971
f 971 972 968
f 971 968 967
f 967 968 964
f 862 863 972
f 972 863 969
f 972 969 968
f 968 969 965
f 968 965 964
f 964 965 961
f 863 864 969
f 969 864 966
f 969 966 965
f 965 966 962
f 965 962 961
f 961 962 958
f 864 865 966
f 966 865 963
f 966 963 962
f 962 963 959
f 962 959 958
f 958 959 955
f 865 866 963
f 963 866 960
f 963 960 959
f 959 960 956
f 959 956 955
f 955 956 952
f 866 867 960
f 960 867 957
f 960 957 956
f 956 957 953
f 956 953 952
f 952 953 949
f 867 868 957
f 957 868 954
f 957 954 953
f 953 954 950
f 953 950 949
f 949 950 946
f 868 869 954
f 954 869 951
f 954 951 950
f 950 951 947
f 950 947 946
f 946 947 943
f 951 869 948
f 948 869 870
f 948 870 945
f 945 870 871
f 945 871 942
f 942 871 872
f 942 872 939
f 939 872 873
f 939 873 936
f 936 873 874
f 936 874 933
f 933 874 875
f 933 875 930
f 930 875 876
f 930 876 927
f 927 876 877
f 927 877 894
f 894 877 878
f 894 878 922
f 922 878 919
f 922 919 918
f 918 919 915
f 918 915 914
f 914 915 911
f 878 879 919
f 919 879 916
f 919 916 915
f 915 916 912
f 915 912 911
f 911 912 908
f 879 880 916
f 916 880 913
f 916 913 912
f 912 913 909
f 912 909 908
f 908 909 905
f 880 881 913
f 913 881 910
f 913 910 909
f 909 910 906
f 909 906 905
f 905 906 902
f 881 882 910
f 910 882 907
f 910 907 906
f 906 907 903
f 906 903 902
f 902 903 899
f 882 883 907
f 907 883 904
f 907 904 903
f 903 904 900
f 903 900 899
f 899 900 896
f 883 884 904
f 904 884 901
f 904 901 900
f 900 901 897
f 900 897 896
f 884 885 901
f 901 885 898
f 901 898 897
f 885 887 898
f 888 890 1002
f 1002 890 1003
f 1002 1003 999
f 999 1003 1000
f 999 1000 996
f 996 1000 997
f 996 997 993
f 993 997 994
f 993 994 990
f 990 994 991
f 990 991 987
f 987 991 988
f 987 988 984
f 984 988 985
f 984 985 981
f 981 985 982
f 981 982 979
f 979 982 980
f 979 980 976
f 976 980 977
f 976 977 973
f 973 977 974
f 973 974 970
f 890 892 1003
f 1003 892 1004
f 1003 1004 1000
f 1000 1004 1001
f 1000 1001 997
f 997 1001 998
f 997 998 994
f 994 998 995
f 994 995 991
f 991 995 992
f 991 992 988
f 988 992 989
f 988 989 985
f 985 989 986
f 985 986 982
f 982 986 983
f 982 983 980
f 980 983 895
f 980 895 977
f 977 895 978
f 977 978 974
f 918 914 917
f 918 917 921
f 921 917 920
f 921 920 924
f 924 920 923
f 924 923 926
f 926 923 925
f 926 925 929
f 929 925 928
f 929 928 932
f 932 928 931
f 932 931 935
f 935 931 934
f 935 934 938
f 938 934 937
f 938 937 941
f 941 937 940
f 941 940 944
f 944 940 943
f 944 943 947
f 894 922 921
f 921 922 918
f 894 921 924
f 927 894 924
f 927 924 926
f 930 927 926
f 930 926 929
f 933 930 929
f 933 929 932
f 936 933 932
f 936 932 935
f 939 936 935
f 939 935 938
f 942 939 938
f 942 938 941
f 945 942 941
f 945 941 944
f 948 945 944
f 948 944 947
f 951 948 947
f 1006 1053 1005
f 1005 1053 1054
f 1005 1054 1055
f 1053 1006 1052
f 1052 1006 1007
f 1052 1007 1051
f 1051 1007 1008
f 1051 1008 1050
f 1050 1008 1009
f 1050 1009 1049
f 1049 1009 1010
f 1049 1010 1048
f 1048 1010 1011
f 1048 1011 1047
f 1047 1011 1012
f 1047 1012 1046
f 1046 1012 1013
f 1046 1013 1045
f 1045 1013 1014
f 1045 1014 1044
f 1044 1014 1015
f 1044 1015 1043
f 1043 1015 1016
f 1043 1016 1042
f 1042 1016 1017
f 1042 1017 1041
f 1041 1017 1018
f 1041 1018 1040
f 1040 1018 1019
f 1040 1019 1039
f 1039 1019 1020
f 1039 1020 1038
f 1038 1020 1072
f 1038 1072 1037
f 1071 1021 1070
f 1070 1021 1022
f 1070 1022 1069
f 1069 1022 1023
f 1069 1023 1068
f 1068 1023 1024
f 1068 1024 1067
f 1067 1024 1025
f 1067 1025 1066
f 1066 1025 1026
f 1066 1026 1065
f 1065 1026 1027
f 1065 1027 1064
f 1064 1027 1028
f 1064 1028 1063
f 1063 1028 1029
f 1063 1029 1062
f 1062 1029 1030
f 1062 1030 1061
f 1061 1030 1031
f 1061 1031 1060
f 1060 1031 1032
f 1060 1032 1059
f 1059 1032 1033
f 1059 1033 1058
f 1058 1033 1034
f 1058 1034 1057
f 1057 1034 1035
f 1057 1035 1056
f 1056 1035 1036
f 1056 1036 1055
f 1055 1036 1005
f 1074 1197 1073
f 1073 1197 1202
f 1073 1202 1166
f 1166 1202 1201
f 1166 1201 1382
f 1382 1201 1200
f 1382 1200 1165
f 1165 1200 1106
f 1165 1106 1348
f 1348 1106 1349
f 1348 1349 1350
f 1350 1349 1342
f 1350 1342 1164
f 1164 1342 1345
f 1164 1345 1103
f 1103 1345 1163
f 1103 1163 1337
f 1337 1163 1353
f 1337 1353 1338
f 1338 1353 1352
f 1338 1352 1160
f 1160 1352 1108
f 1160 1108 1339
f 1339 1108 1334
f 1339 1334 1333
f 1333 1334 1335
f 1333 1335 1336
f 1336 1335 1159
f 1336 1159 1101
f 1101 1159 1328
f 1101 1328 1100
f 1100 1328 1332
f 1100 1332 1157
f 1157 1332 1331
f 1157 1331 1356
f 1356 1331 1156
f 1356 1156 1357
f 1357 1156 1110
f 1357 1110 1325
f 1325 1110 1111
f 1325 1111 1154
f 1154 1111 1320
f 1154 1320 1319
f 1319 1320 1321
f 1319 1321 1322
f 1322 1321 1153
f 1322 1153 1098
f 1098 1153 1313
f 1098 1313 1097
f 1097 1313 1318
f 1097 1318 1152
f 1152 1318 1317
f 1152 1317 1309
f 1309 1317 1316
f 1309 1316 1310
f 1310 1316 1112
f 1310 1112 1113
f 1075 1170 1074
f 1074 1170 1207
f 1074 1207 1168
f 1168 1207 1206
f 1168 1206 1381
f 1381 1206 1205
f 1381 1205 1167
f 1167 1205 1105
f 1167 1105 1199
f 1199 1105 1200
f 1199 1200 1201
f 1076 1208 1075
f 1075 1208 1212
f 1075 1212 1170
f 1170 1212 1211
f 1170 1211 1203
f 1203 1211 1169
f 1203 1169 1204
f 1204 1169 1131
f 1204 1131 1205
f 1205 1131 1105
f 1077 1174 1076
f 1076 1174 1216
f 1076 1216 1172
f 1172 1216 1215
f 1172 1215 1377
f 1377 1215 1171
f 1377 1171 1378
f 1378 1171 1130
f 1378 1130 1210
f 1210 1130 1131
f 1210 1131 1169
f 1078 1217 1077
f 1077 1217 1221
f 1077 1221 1174
f 1174 1221 1220
f 1174 1220 1213
f 1213 1220 1219
f 1213 1219 1214
f 1214 1219 1129
f 1214 1129 1130
f 1079 1222 1078
f 1078 1222 1226
f 1078 1226 1176
f 1176 1226 1225
f 1176 1225 1376
f 1376 1225 1224
f 1376 1224 1375
f 1375 1224 1128
f 1375 1128 1129
f 1080 1179 1079
f 1079 1179 1230
f 1079 1230 1178
f 1178 1230 1229
f 1178 1229 1374
f 1374 1229 1228
f 1374 1228 1373
f 1373 1228 1127
f 1373 1127 1128
f 1081 1231 1080
f 1080 1231 1236
f 1080 1236 1179
f 1179 1236 1235
f 1179 1235 1227
f 1227 1235 1234
f 1227 1234 1177
f 1177 1234 1127
f 1177 1127 1228
f 1082 1183 1081
f 1081 1183 1241
f 1081 1241 1181
f 1181 1241 1240
f 1181 1240 1380
f 1380 1240 1239
f 1380 1239 1180
f 1180 1239 1126
f 1180 1126 1233
f 1233 1126 1234
f 1233 1234 1235
f 1083 1242 1082
f 1082 1242 1246
f 1082 1246 1183
f 1183 1246 1245
f 1183 1245 1237
f 1237 1245 1244
f 1237 1244 1238
f 1238 1244 1125
f 1238 1125 1126
f 1084 1247 1083
f 1083 1247 1251
f 1083 1251 1185
f 1185 1251 1250
f 1185 1250 1372
f 1372 1250 1249
f 1372 1249 1371
f 1371 1249 1124
f 1371 1124 1125
f 1085 1188 1084
f 1084 1188 1255
f 1084 1255 1187
f 1187 1255 1254
f 1187 1254 1370
f 1370 1254 1253
f 1370 1253 1369
f 1369 1253 1123
f 1369 1123 1124
f 1086 1256 1085
f 1085 1256 1261
f 1085 1261 1188
f 1188 1261 1260
f 1188 1260 1252
f 1252 1260 1259
f 1252 1259 1186
f 1186 1259 1123
f 1186 1123 1253
f 1087 1192 1086
f 1086 1192 1266
f 1086 1266 1190
f 1190 1266 1265
f 1190 1265 1379
f 1379 1265 1264
f 1379 1264 1189
f 1189 1264 1122
f 1189 1122 1258
f 1258 1122 1259
f 1258 1259 1260
f 1088 1267 1087
f 1087 1267 1271
f 1087 1271 1192
f 1192 1271 1270
f 1192 1270 1262
f 1262 1270 1191
f 1262 1191 1263
f 1263 1191 1121
f 1263 1121 1264
f 1264 1121 1122
f 1132 1196 1088
f 1088 1196 1275
f 1088 1275 1194
f 1194 1275 1274
f 1194 1274 1367
f 1367 1274 1193
f 1367 1193 1368
f 1368 1193 1120
f 1368 1120 1269
f 1269 1120 1121
f 1269 1121 1191
f 1090 1139 1089
f 1089 1139 1134
f 1132 1133 1364
f 1364 1133 1135
f 1364 1135 1365
f 1365 1135 1195
f 1365 1195 1366
f 1366 1195 1119
f 1366 1119 1273
f 1273 1119 1120
f 1273 1120 1193
f 1091 1278 1090
f 1090 1278 1283
f 1090 1283 1139
f 1139 1283 1282
f 1139 1282 1276
f 1276 1282 1280
f 1276 1280 1277
f 1277 1280 1281
f 1386 1118 1119
f 1092 1142 1091
f 1091 1142 1287
f 1091 1287 1141
f 1141 1287 1286
f 1141 1286 1363
f 1363 1286 1285
f 1363 1285 1362
f 1362 1285 1117
f 1362 1117 1281
f 1093 1288 1092
f 1092 1288 1293
f 1092 1293 1142
f 1142 1293 1292
f 1142 1292 1284
f 1284 1292 1291
f 1284 1291 1140
f 1140 1291 1117
f 1140 1117 1285
f 1094 1146 1093
f 1093 1146 1298
f 1093 1298 1144
f 1144 1298 1297
f 1144 1297 1385
f 1385 1297 1296
f 1385 1296 1143
f 1143 1296 1116
f 1143 1116 1290
f 1290 1116 1291
f 1290 1291 1292
f 1095 1299 1094
f 1094 1299 1303
f 1094 1303 1146
f 1146 1303 1302
f 1146 1302 1294
f 1294 1302 1145
f 1294 1145 1295
f 1295 1145 1115
f 1295 1115 1296
f 1296 1115 1116
f 1096 1304 1095
f 1095 1304 1308
f 1095 1308 1148
f 1148 1308 1307
f 1148 1307 1360
f 1360 1307 1147
f 1360 1147 1361
f 1361 1147 1114
f 1361 1114 1301
f 1301 1114 1115
f 1301 1115 1145
f 1097 1152 1096
f 1096 1152 1312
f 1096 1312 1150
f 1150 1312 1311
f 1150 1311 1358
f 1358 1311 1149
f 1358 1149 1359
f 1359 1149 1113
f 1359 1113 1306
f 1306 1113 1114
f 1306 1114 1147
f 1322 1098 1155
f 1155 1098 1099
f 1155 1099 1327
f 1327 1099 1323
f 1327 1323 1324
f 1324 1323 1356
f 1324 1356 1357
f 1099 1100 1323
f 1323 1100 1157
f 1323 1157 1356
f 1336 1101 1161
f 1161 1101 1102
f 1161 1102 1341
f 1341 1102 1337
f 1341 1337 1338
f 1102 1103 1337
f 1103 1104 1164
f 1164 1104 1351
f 1164 1351 1350
f 1350 1351 1347
f 1350 1347 1348
f 1348 1347 1165
f 1351 1104 1346
f 1346 1104 1073
f 1346 1073 1166
f 1105 1106 1200
f 1106 1107 1349
f 1349 1107 1162
f 1349 1162 1342
f 1342 1162 1344
f 1342 1344 1345
f 1345 1344 1163
f 1108 1352 1107
f 1107 1352 1343
f 1107 1343 1162
f 1162 1343 1344
f 1108 1109 1334
f 1334 1109 1158
f 1334 1158 1335
f 1335 1158 1354
f 1335 1354 1159
f 1159 1354 1328
f 1110 1330 1109
f 1109 1330 1355
f 1109 1355 1158
f 1158 1355 1354
f 1320 1111 1315
f 1315 1111 1112
f 1315 1112 1383
f 1383 1112 1151
f 1383 1151 1314
f 1314 1151 1317
f 1314 1317 1318
f 1116 1117 1291
f 1122 1123 1259
f 1126 1127 1234
f 1196 1132 1364
f 1139 1276 1134
f 1134 1276 1136
f 1276 1277 1136
f 1136 1277 1137
f 1281 1280 1138
f 1138 1280 1282
f 1138 1282 1279
f 1279 1282 1283
f 1279 1283 1278
f 1278 1091 1141
f 1288 1093 1144
f 1299 1095 1148
f 1310 1113 1149
f 1304 1096 1150
f 1317 1151 1316
f 1316 1151 1112
f 1330 1110 1156
f 1197 1074 1168
f 1214 1130 1171
f 1208 1076 1172
f 1129 1219 1173
f 1173 1219 1220
f 1173 1220 1218
f 1218 1220 1221
f 1218 1221 1217
f 1128 1224 1175
f 1175 1224 1225
f 1175 1225 1223
f 1223 1225 1226
f 1223 1226 1222
f 1217 1078 1176
f 1222 1079 1178
f 1231 1081 1181
f 1125 1244 1182
f 1182 1244 1245
f 1182 1245 1243
f 1243 1245 1246
f 1243 1246 1242
f 1124 1249 1184
f 1184 1249 1250
f 1184 1250 1248
f 1248 1250 1251
f 1248 1251 1247
f 1242 1083 1185
f 1247 1084 1187
f 1256 1086 1190
f 1267 1088 1194
f 1386 1119 1195
f 1201 1202 1198
f 1198 1202 1197
f 1198 1197 1381
f 1381 1197 1168
f 1167 1199 1198
f 1198 1199 1201
f 1167 1198 1381
f 1206 1207 1203
f 1203 1207 1170
f 1205 1206 1204
f 1204 1206 1203
f 1211 1212 1209
f 1209 1212 1208
f 1209 1208 1377
f 1377 1208 1172
f 1169 1211 1210
f 1210 1211 1209
f 1210 1209 1378
f 1378 1209 1377
f 1215 1216 1213
f 1213 1216 1174
f 1171 1215 1214
f 1214 1215 1213
f 1176 1376 1217
f 1217 1376 1218
f 1376 1375 1218
f 1218 1375 1173
f 1129 1173 1375
f 1178 1374 1222
f 1222 1374 1223
f 1374 1373 1223
f 1223 1373 1175
f 1128 1175 1373
f 1229 1230 1227
f 1227 1230 1179
f 1228 1229 1177
f 1177 1229 1227
f 1235 1236 1232
f 1232 1236 1231
f 1232 1231 1380
f 1380 1231 1181
f 1180 1233 1232
f 1232 1233 1235
f 1180 1232 1380
f 1238 1126 1239
f 1240 1241 1237
f 1237 1241 1183
f 1239 1240 1238
f 1238 1240 1237
f 1185 1372 1242
f 1242 1372 1243
f 1372 1371 1243
f 1243 1371 1182
f 1125 1182 1371
f 1187 1370 1247
f 1247 1370 1248
f 1370 1369 1248
f 1248 1369 1184
f 1124 1184 1369
f 1254 1255 1252
f 1252 1255 1188
f 1253 1254 1186
f 1186 1254 1252
f 1260 1261 1257
f 1257 1261 1256
f 1257 1256 1379
f 1379 1256 1190
f 1189 1258 1257
f 1257 1258 1260
f 1189 1257 1379
f 1265 1266 1262
f 1262 1266 1192
f 1264 1265 1263
f 1263 1265 1262
f 1270 1271 1268
f 1268 1271 1267
f 1268 1267 1367
f 1367 1267 1194
f 1191 1270 1269
f 1269 1270 1268
f 1269 1268 1368
f 1368 1268 1367
f 1274 1275 1272
f 1272 1275 1196
f 1272 1196 1365
f 1365 1196 1364
f 1193 1274 1273
f 1273 1274 1272
f 1273 1272 1366
f 1366 1272 1365
f 1141 1363 1278
f 1278 1363 1279
f 1363 1362 1279
f 1279 1362 1138
f 1281 1138 1362
f 1286 1287 1284
f 1284 1287 1142
f 1285 1286 1140
f 1140 1286 1284
f 1292 1293 1289
f 1289 1293 1288
f 1289 1288 1385
f 1385 1288 1144
f 1143 1290 1289
f 1289 1290 1292
f 1143 1289 1385
f 1297 1298 1294
f 1294 1298 1146
f 1296 1297 1295
f 1295 1297 1294
f 1302 1303 1300
f 1300 1303 1299
f 1300 1299 1360
f 1360 1299 1148
f 1145 1302 1301
f 1301 1302 1300
f 1301 1300 1361
f 1361 1300 1360
f 1307 1308 1305
f 1305 1308 1304
f 1305 1304 1358
f 1358 1304 1150
f 1147 1307 1306
f 1306 1307 1305
f 1306 1305 1359
f 1359 1305 1358
f 1311 1312 1309
f 1309 1312 1152
f 1149 1311 1310
f 1310 1311 1309
f 1318 1313 1314
f 1314 1313 1384
f 1314 1384 1383
f 1383 1384 1315
f 1322 1155 1319
f 1319 1155 1326
f 1319 1326 1154
f 1154 1326 1325
f 1320 1315 1321
f 1321 1315 1384
f 1321 1384 1153
f 1153 1384 1313
f 1327 1324 1326
f 1326 1324 1325
f 1325 1324 1357
f 1155 1327 1326
f 1331 1332 1329
f 1329 1332 1328
f 1329 1328 1354
f 1156 1331 1330
f 1330 1331 1329
f 1330 1329 1355
f 1355 1329 1354
f 1336 1161 1333
f 1333 1161 1340
f 1333 1340 1339
f 1339 1340 1160
f 1341 1338 1340
f 1340 1338 1160
f 1161 1341 1340
f 1352 1353 1343
f 1343 1353 1344
f 1353 1163 1344
f 1351 1346 1347
f 1347 1346 1382
f 1347 1382 1165
f 1166 1382 1346
f 1388 1414 1387
f 1387 1414 1415
f 1387 1415 1413
f 1413 1415 1416
f 1413 1416 1412
f 1412 1416 1417
f 1412 1417 1411
f 1411 1417 1418
f 1411 1418 1410
f 1410 1418 1419
f 1410 1419 1409
f 1409 1419 1420
f 1409 1420 1408
f 1408 1420 1421
f 1408 1421 1407
f 1407 1421 1422
f 1407 1422 1406
f 1406 1422 1423
f 1406 1423 1405
f 1405 1423 1424
f 1405 1424 1404
f 1404 1424 1425
f 1404 1425 1403
f 1403 1425 1426
f 1403 1426 1402
f 1402 1426 1442
f 1402 1442 1401
f 1441 1427 1428
f 1441 1428 1400
f 1400 1428 1429
f 1400 1429 1399
f 1399 1429 1430
f 1399 1430 1398
f 1398 1430 1431
f 1398 1431 1397
f 1397 1431 1432
f 1397 1432 1396
f 1396 1432 1433
f 1396 1433 1395
f 1395 1433 1434
f 1395 1434 1394
f 1394 1434 1435
f 1394 1435 1393
f 1393 1435 1436
f 1393 1436 1392
f 1392 1436 1437
f 1392 1437 1391
f 1391 1437 1438
f 1391 1438 1390
f 1390 1438 1439
f 1390 1439 1389
f 1389 1439 1440
f 1389 1440 1388
f 1388 1440 1414
f 1444 1487 1443
f 1443 1487 1465
f 1443 1465 1466
f 1487 1444 1486
f 1486 1444 1445
f 1486 1445 1485
f 1485 1445 1446
f 1485 1446 1484
f 1484 1446 1447
f 1484 1447 1483
f 1483 1447 1448
f 1483 1448 1482
f 1482 1448 1449
f 1482 1449 1481
f 1481 1449 1450
f 1481 1450 1480
f 1480 1450 1451
f 1480 1451 1479
f 1479 1451 1452
f 1479 1452 1478
f 1478 1452 1453
f 1478 1453 1477
f 1477 1453 1489
f 1477 1489 1476
f 1488 1454 1455
f 1488 1455 1475
f 1475 1455 1456
f 1475 1456 1474
f 1474 1456 1457
f 1474 1457 1473
f 1473 1457 1458
f 1473 1458 1472
f 1472 1458 1459
f 1472 1459 1471
f 1471 1459 1460
f 1471 1460 1470
f 1470 1460 1461
f 1470 1461 1469
f 1469 1461 1462
f 1469 1462 1468
f 1468 1462 1463
f 1468 1463 1467
f 1467 1463 1464
f 1467 1464 1466
f 1466 1464 1443
f 1491 1547 1490
f 1490 1547 1513
f 1490 1513 1514
f 1547 1491 1546
f 1546 1491 1492
f 1546 1492 1545
f 1545 1492 1544
f 1544 1492 1493
f 1544 1493 1543
f 1543 1493 1494
f 1543 1494 1542
f 1542 1494 1541
f 1541 1494 1495
f 1541 1495 1540
f 1540 1495 1496
f 1540 1496 1539
f 1539 1496 1538
f 1538 1496 1497
f 1538 1497 1537
f 1537 1497 1498
f 1537 1498 1536
f 1536 1498 1535
f 1535 1498 1499
f 1535 1499 1534
f 1534 1499 1500
f 1534 1500 1533
f 1533 1500 1532
f 1532 1500 1501
f 1532 1501 1531
f 1531 1501 1548
f 1531 1548 1530
f 1549 1502 1529
f 1529 1502 1503
f 1529 1503 1528
f 1528 1503 1527
f 1527 1503 1504
f 1527 1504 1526
f 1526 1504 1505
f 1526 1505 1525
f 1525 1505 1524
f 1524 1505 1506
f 1524 1506 1523
f 1523 1506 1507
f 1523 1507 1522
f 1522 1507 1521
f 1521 1507 1508
f 1521 1508 1520
f 1520 1508 1509
f 1520 1509 1519
f 1519 1509 1518
f 1518 1509 1510
f 1518 1510 1517
f 1517 1510 1511
f 1517 1511 1516
f 1516 1511 1515
f 1515 1511 1512
f 1515 1512 1514
f 1514 1512 1490
f 1551 1619 1550
f 1550 1619 1585
f 1550 1585 1584
f 1584 1585 1586
f 1584 1586 1587
f 1551 1552 1619
f 1619 1552 1618
f 1618 1552 1553
f 1618 1553 1617
f 1617 1553 1554
f 1617 1554 1616
f 1616 1554 1555
f 1616 1555 1615
f 1615 1555 1556
f 1615 1556 1614
f 1614 1556 1557
f 1614 1557 1613
f 1613 1557 1558
f 1613 1558 1612
f 1612 1558 1559
f 1612 1559 1611
f 1611 1559 1560
f 1611 1560 1610
f 1610 1560 1561
f 1610 1561 1609
f 1609 1561 1562
f 1609 1562 1608
f 1608 1562 1563
f 1608 1563 1607
f 1607 1563 1564
f 1607 1564 1606
f 1606 1564 1565
f 1606 1565 1605
f 1605 1565 1566
f 1605 1566 1604
f 1604 1566 1567
f 1604 1567 1603
f 1603 1567 1620
f 1603 1620 1602
f 1621 1568 1569
f 1621 1569 1601
f 1601 1569 1570
f 1601 1570 1600
f 1600 1570 1571
f 1600 1571 1599
f 1599 1571 1572
f 1599 1572 1598
f 1598 1572 1573
f 1598 1573 1597
f 1597 1573 1574
f 1597 1574 1596
f 1596 1574 1575
f 1596 1575 1595
f 1595 1575 1576
f 1595 1576 1594
f 1594 1576 1577
f 1594 1577 1593
f 1593 1577 1578
f 1593 1578 1592
f 1592 1578 1579
f 1592 1579 1591
f 1591 1579 1580
f 1591 1580 1590
f 1590 1580 1581
f 1590 1581 1589
f 1589 1581 1582
f 1589 1582 1588
f 1588 1582 1583
f 1588 1583 1587
f 1587 1583 1584
f 1622 1623 1656
f 1656 1623 1624
f 1656 1624 1655
f 1655 1624 1625
f 1655 1625 1654
f 1654 1625 1626
f 1654 1626 1627
f 1627 1628 1654
f 1654 1628 1629
f 1654 1629 1630
f 1630 1631 1654
f 1654 1631 1632
f 1654 1632 1633
f 1633 1634 1654
f 1654 1634 1635
f 1654 1635 1653
f 1653 1635 1636
f 1653 1636 1637
f 1637 1638 1653
f 1653 1638 1639
f 1653 1639 1640
f 1640 1641 1653
f 1653 1641 1642
f 1653 1642 1643
f 1643 1644 1653
f 1653 1644 1652
f 1652 1644 1645
f 1652 1645 1651
f 1651 1645 1646
f 1651 1646 1650
f 1650 1646 1647
f 1650 1647 1649
f 1649 1647 1648

